<mxfile host="65bd71144e" pages="4">
    <diagram name="HomePage" id="3NgGKsicxAVz6RDELZmL">
        <mxGraphModel dx="1136" dy="468" grid="1" gridSize="10" guides="1" tooltips="1" connect="1" arrows="1" fold="1" page="1" pageScale="1" pageWidth="827" pageHeight="1169" math="0" shadow="0">
            <root>
                <mxCell id="0"/>
                <mxCell id="1" parent="0"/>
                <mxCell id="9rOm0A-i6Xlq70l3iju7-1" value="" style="whiteSpace=wrap;html=1;strokeWidth=1;" parent="1" vertex="1">
                    <mxGeometry x="50" y="30" width="630" height="850" as="geometry"/>
                </mxCell>
                <mxCell id="9rOm0A-i6Xlq70l3iju7-3" value="" style="rounded=0;whiteSpace=wrap;html=1;fillColor=#004AAD;strokeColor=none;" parent="1" vertex="1">
                    <mxGeometry x="50" y="30" width="630" height="20" as="geometry"/>
                </mxCell>
                <mxCell id="hJOwUByF51vyl-JDJ4wE-1" value="" style="group" parent="1" connectable="0" vertex="1">
                    <mxGeometry x="80" y="60" width="50" height="55" as="geometry"/>
                </mxCell>
                <mxCell id="hJOwUByF51vyl-JDJ4wE-2" value="" style="group" parent="hJOwUByF51vyl-JDJ4wE-1" connectable="0" vertex="1">
                    <mxGeometry width="50" height="55" as="geometry"/>
                </mxCell>
                <mxCell id="9rOm0A-i6Xlq70l3iju7-6" value="" style="rounded=0;whiteSpace=wrap;html=1;" parent="hJOwUByF51vyl-JDJ4wE-2" vertex="1">
                    <mxGeometry width="50" height="55" as="geometry"/>
                </mxCell>
                <mxCell id="9rOm0A-i6Xlq70l3iju7-8" value="" style="endArrow=none;html=1;rounded=0;entryX=0;entryY=0;entryDx=0;entryDy=0;exitX=1;exitY=1;exitDx=0;exitDy=0;" parent="hJOwUByF51vyl-JDJ4wE-2" source="9rOm0A-i6Xlq70l3iju7-6" target="9rOm0A-i6Xlq70l3iju7-6" edge="1">
                    <mxGeometry width="50" height="50" relative="1" as="geometry">
                        <mxPoint x="350" y="282.5" as="sourcePoint"/>
                        <mxPoint x="400" y="232.5" as="targetPoint"/>
                    </mxGeometry>
                </mxCell>
                <mxCell id="9rOm0A-i6Xlq70l3iju7-7" value="" style="endArrow=none;html=1;rounded=0;exitX=0;exitY=1;exitDx=0;exitDy=0;entryX=1;entryY=0;entryDx=0;entryDy=0;" parent="hJOwUByF51vyl-JDJ4wE-2" source="9rOm0A-i6Xlq70l3iju7-6" target="9rOm0A-i6Xlq70l3iju7-6" edge="1">
                    <mxGeometry width="50" height="50" relative="1" as="geometry">
                        <mxPoint x="-60" y="42.5" as="sourcePoint"/>
                        <mxPoint x="-20" y="0.5" as="targetPoint"/>
                        <Array as="points"/>
                    </mxGeometry>
                </mxCell>
                <mxCell id="hJOwUByF51vyl-JDJ4wE-27" value="Dunfermline Men's Shed" style="text;html=1;strokeColor=none;fillColor=none;align=center;verticalAlign=middle;whiteSpace=wrap;rounded=0;" parent="1" vertex="1">
                    <mxGeometry x="120" y="72.5" width="160" height="30" as="geometry"/>
                </mxCell>
                <mxCell id="hJOwUByF51vyl-JDJ4wE-30" value="" style="endArrow=none;html=1;rounded=0;" parent="1" edge="1">
                    <mxGeometry width="50" height="50" relative="1" as="geometry">
                        <mxPoint x="50" y="120" as="sourcePoint"/>
                        <mxPoint x="680" y="120" as="targetPoint"/>
                    </mxGeometry>
                </mxCell>
                <mxCell id="hJOwUByF51vyl-JDJ4wE-32" value="&lt;u&gt;Home&lt;/u&gt;" style="text;html=1;strokeColor=none;fillColor=none;align=center;verticalAlign=middle;whiteSpace=wrap;rounded=0;" parent="1" vertex="1">
                    <mxGeometry x="310" y="72.5" width="60" height="30" as="geometry"/>
                </mxCell>
                <mxCell id="hJOwUByF51vyl-JDJ4wE-33" value="About Us" style="text;html=1;strokeColor=none;fillColor=none;align=center;verticalAlign=middle;whiteSpace=wrap;rounded=0;" parent="1" vertex="1">
                    <mxGeometry x="383" y="72.5" width="60" height="30" as="geometry"/>
                </mxCell>
                <mxCell id="hJOwUByF51vyl-JDJ4wE-34" value="Resource Library" style="text;html=1;strokeColor=none;fillColor=none;align=center;verticalAlign=middle;whiteSpace=wrap;rounded=0;" parent="1" vertex="1">
                    <mxGeometry x="455" y="72.5" width="60" height="30" as="geometry"/>
                </mxCell>
                <mxCell id="hJOwUByF51vyl-JDJ4wE-35" value="Booking" style="text;html=1;strokeColor=none;fillColor=none;align=center;verticalAlign=middle;whiteSpace=wrap;rounded=0;" parent="1" vertex="1">
                    <mxGeometry x="528" y="72.5" width="60" height="30" as="geometry"/>
                </mxCell>
                <mxCell id="hJOwUByF51vyl-JDJ4wE-36" value="Support" style="text;html=1;strokeColor=none;fillColor=none;align=center;verticalAlign=middle;whiteSpace=wrap;rounded=0;" parent="1" vertex="1">
                    <mxGeometry x="600" y="72.5" width="60" height="30" as="geometry"/>
                </mxCell>
                <mxCell id="hJOwUByF51vyl-JDJ4wE-28" value="" style="rounded=0;whiteSpace=wrap;html=1;fillColor=#004AAD;strokeColor=none;" parent="1" vertex="1">
                    <mxGeometry x="50" y="30" width="20" height="740" as="geometry"/>
                </mxCell>
                <mxCell id="hJOwUByF51vyl-JDJ4wE-38" value="" style="group" parent="1" connectable="0" vertex="1">
                    <mxGeometry x="80" y="130" width="590" height="140" as="geometry"/>
                </mxCell>
                <mxCell id="hJOwUByF51vyl-JDJ4wE-39" value="" style="group" parent="hJOwUByF51vyl-JDJ4wE-38" connectable="0" vertex="1">
                    <mxGeometry width="590" height="140" as="geometry"/>
                </mxCell>
                <mxCell id="hJOwUByF51vyl-JDJ4wE-40" value="" style="rounded=0;whiteSpace=wrap;html=1;" parent="hJOwUByF51vyl-JDJ4wE-39" vertex="1">
                    <mxGeometry width="590" height="140" as="geometry"/>
                </mxCell>
                <mxCell id="hJOwUByF51vyl-JDJ4wE-41" value="" style="endArrow=none;html=1;rounded=0;entryX=0;entryY=0;entryDx=0;entryDy=0;exitX=1;exitY=1;exitDx=0;exitDy=0;" parent="hJOwUByF51vyl-JDJ4wE-39" source="hJOwUByF51vyl-JDJ4wE-40" target="hJOwUByF51vyl-JDJ4wE-40" edge="1">
                    <mxGeometry width="50" height="50" relative="1" as="geometry">
                        <mxPoint x="4130" y="719.0909090909091" as="sourcePoint"/>
                        <mxPoint x="4720" y="591.8181818181818" as="targetPoint"/>
                    </mxGeometry>
                </mxCell>
                <mxCell id="hJOwUByF51vyl-JDJ4wE-42" value="" style="endArrow=none;html=1;rounded=0;exitX=0;exitY=1;exitDx=0;exitDy=0;entryX=1;entryY=0;entryDx=0;entryDy=0;" parent="hJOwUByF51vyl-JDJ4wE-39" source="hJOwUByF51vyl-JDJ4wE-40" target="hJOwUByF51vyl-JDJ4wE-40" edge="1">
                    <mxGeometry width="50" height="50" relative="1" as="geometry">
                        <mxPoint x="-708" y="108.18181818181819" as="sourcePoint"/>
                        <mxPoint x="-236" y="1.2727272727272727" as="targetPoint"/>
                        <Array as="points"/>
                    </mxGeometry>
                </mxCell>
                <mxCell id="hJOwUByF51vyl-JDJ4wE-44" value="&lt;h1&gt;&lt;font style=&quot;font-size: 17px;&quot;&gt;Introduction&lt;/font&gt;&lt;/h1&gt;&lt;p&gt;Lorem ipsum dolor sit amet, consectetur adipisicing elit, sed do eiusmod tempor incididunt ut labore et dolore magna aliqua.&lt;/p&gt;&lt;p&gt;Lorem ipsum dolor sit amet, consectetur adipisicing elit, sed do eiusmod tempor incididunt ut labore et dolore magna aliqua.&lt;br&gt;&lt;/p&gt;" style="text;html=1;strokeColor=none;fillColor=none;spacing=5;spacingTop=-20;whiteSpace=wrap;overflow=hidden;rounded=0;" parent="1" vertex="1">
                    <mxGeometry x="80" y="270" width="200" height="220" as="geometry"/>
                </mxCell>
                <mxCell id="hJOwUByF51vyl-JDJ4wE-45" value="" style="group" parent="1" connectable="0" vertex="1">
                    <mxGeometry x="350" y="273" width="320" height="160" as="geometry"/>
                </mxCell>
                <mxCell id="hJOwUByF51vyl-JDJ4wE-46" value="" style="group" parent="hJOwUByF51vyl-JDJ4wE-45" connectable="0" vertex="1">
                    <mxGeometry width="320" height="160" as="geometry"/>
                </mxCell>
                <mxCell id="hJOwUByF51vyl-JDJ4wE-59" value="" style="group" parent="hJOwUByF51vyl-JDJ4wE-46" connectable="0" vertex="1">
                    <mxGeometry y="40" width="320" height="160" as="geometry"/>
                </mxCell>
                <mxCell id="hJOwUByF51vyl-JDJ4wE-47" value="" style="rounded=0;whiteSpace=wrap;html=1;" parent="hJOwUByF51vyl-JDJ4wE-59" vertex="1">
                    <mxGeometry width="320" height="160" as="geometry"/>
                </mxCell>
                <mxCell id="hJOwUByF51vyl-JDJ4wE-48" value="" style="endArrow=none;html=1;rounded=0;entryX=0;entryY=0;entryDx=0;entryDy=0;exitX=1;exitY=1;exitDx=0;exitDy=0;" parent="hJOwUByF51vyl-JDJ4wE-59" source="hJOwUByF51vyl-JDJ4wE-47" target="hJOwUByF51vyl-JDJ4wE-47" edge="1">
                    <mxGeometry width="50" height="50" relative="1" as="geometry">
                        <mxPoint x="2240" y="821.8181818181819" as="sourcePoint"/>
                        <mxPoint x="2560" y="676.3636363636364" as="targetPoint"/>
                    </mxGeometry>
                </mxCell>
                <mxCell id="hJOwUByF51vyl-JDJ4wE-50" value="" style="html=1;shadow=0;dashed=0;align=center;verticalAlign=middle;shape=mxgraph.arrows2.arrow;dy=0.6;dx=40;flipH=1;notch=0;fontSize=17;" parent="hJOwUByF51vyl-JDJ4wE-59" vertex="1">
                    <mxGeometry y="60" width="70" height="40" as="geometry"/>
                </mxCell>
                <mxCell id="hJOwUByF51vyl-JDJ4wE-58" value="" style="html=1;shadow=0;dashed=0;align=center;verticalAlign=middle;shape=mxgraph.arrows2.arrow;dy=0.6;dx=40;flipH=1;notch=0;fontSize=17;direction=west;" parent="hJOwUByF51vyl-JDJ4wE-59" vertex="1">
                    <mxGeometry x="250" y="60" width="70" height="40" as="geometry"/>
                </mxCell>
                <mxCell id="hJOwUByF51vyl-JDJ4wE-49" value="" style="endArrow=none;html=1;rounded=0;exitX=0;exitY=1;exitDx=0;exitDy=0;entryX=1;entryY=0;entryDx=0;entryDy=0;" parent="hJOwUByF51vyl-JDJ4wE-59" source="hJOwUByF51vyl-JDJ4wE-47" target="hJOwUByF51vyl-JDJ4wE-47" edge="1">
                    <mxGeometry width="50" height="50" relative="1" as="geometry">
                        <mxPoint x="-384" y="123.63636363636364" as="sourcePoint"/>
                        <mxPoint x="-128" y="1.4545454545454546" as="targetPoint"/>
                        <Array as="points"/>
                    </mxGeometry>
                </mxCell>
                <mxCell id="hJOwUByF51vyl-JDJ4wE-63" value="" style="rounded=0;whiteSpace=wrap;html=1;strokeWidth=1;fontSize=17;" parent="hJOwUByF51vyl-JDJ4wE-59" vertex="1">
                    <mxGeometry x="70" y="147" width="30" height="10" as="geometry"/>
                </mxCell>
                <mxCell id="hJOwUByF51vyl-JDJ4wE-64" value="" style="rounded=0;whiteSpace=wrap;html=1;strokeWidth=1;fontSize=17;" parent="hJOwUByF51vyl-JDJ4wE-59" vertex="1">
                    <mxGeometry x="110" y="147" width="30" height="10" as="geometry"/>
                </mxCell>
                <mxCell id="hJOwUByF51vyl-JDJ4wE-65" value="" style="rounded=0;whiteSpace=wrap;html=1;strokeWidth=1;fontSize=17;" parent="hJOwUByF51vyl-JDJ4wE-59" vertex="1">
                    <mxGeometry x="145" y="147" width="30" height="10" as="geometry"/>
                </mxCell>
                <mxCell id="hJOwUByF51vyl-JDJ4wE-66" value="" style="rounded=0;whiteSpace=wrap;html=1;strokeWidth=1;fontSize=17;" parent="hJOwUByF51vyl-JDJ4wE-59" vertex="1">
                    <mxGeometry x="180" y="147" width="30" height="10" as="geometry"/>
                </mxCell>
                <mxCell id="hJOwUByF51vyl-JDJ4wE-68" value="" style="rounded=0;whiteSpace=wrap;html=1;strokeWidth=1;fontSize=17;" parent="hJOwUByF51vyl-JDJ4wE-59" vertex="1">
                    <mxGeometry x="220" y="147" width="30" height="10" as="geometry"/>
                </mxCell>
                <mxCell id="hJOwUByF51vyl-JDJ4wE-60" value="&lt;b&gt;Highlights&lt;/b&gt;" style="text;html=1;strokeColor=none;fillColor=none;align=center;verticalAlign=middle;whiteSpace=wrap;rounded=0;fontSize=17;" parent="1" vertex="1">
                    <mxGeometry x="335" y="280" width="120" height="30" as="geometry"/>
                </mxCell>
                <mxCell id="hJOwUByF51vyl-JDJ4wE-69" value="&lt;h1&gt;&lt;span style=&quot;background-color: initial; font-size: 17px;&quot;&gt;Shed News&lt;/span&gt;&lt;/h1&gt;&lt;p&gt;Lorem ipsum dolor sit amet, consectetur adipisicing elit, sed do eiusmod tempor incididunt ut labore et dolore magna aliqua.&lt;br&gt;&lt;/p&gt;&lt;p&gt;Link to media: facebook&lt;/p&gt;" style="text;html=1;strokeColor=none;fillColor=none;spacing=5;spacingTop=-20;whiteSpace=wrap;overflow=hidden;rounded=0;" parent="1" vertex="1">
                    <mxGeometry x="80" y="510" width="210" height="160" as="geometry"/>
                </mxCell>
                <mxCell id="hJOwUByF51vyl-JDJ4wE-70" value="&lt;h1&gt;&lt;span style=&quot;background-color: initial; font-size: 17px;&quot;&gt;Local News&lt;/span&gt;&lt;/h1&gt;&lt;p&gt;Lorem ipsum dolor sit amet, consectetur adipisicing elit, sed do eiusmod tempor incididunt ut labore et dolore magna aliqua.&lt;br&gt;&lt;/p&gt;&lt;p&gt;Link to&amp;nbsp;https://www.dunfermlinepress.com/&lt;/p&gt;&lt;p&gt;include select stories&lt;/p&gt;" style="text;html=1;strokeColor=none;fillColor=none;spacing=5;spacingTop=-20;whiteSpace=wrap;overflow=hidden;rounded=0;" parent="1" vertex="1">
                    <mxGeometry x="350" y="510" width="210" height="190" as="geometry"/>
                </mxCell>
                <mxCell id="hJOwUByF51vyl-JDJ4wE-71" value="" style="rounded=0;whiteSpace=wrap;html=1;fillColor=#004AAD;strokeColor=none;" parent="1" vertex="1">
                    <mxGeometry x="50" y="720" width="630" height="160" as="geometry"/>
                </mxCell>
                <mxCell id="hJOwUByF51vyl-JDJ4wE-72" value="" style="group" parent="1" connectable="0" vertex="1">
                    <mxGeometry x="60" y="730" width="50" height="55" as="geometry"/>
                </mxCell>
                <mxCell id="hJOwUByF51vyl-JDJ4wE-73" value="" style="group" parent="hJOwUByF51vyl-JDJ4wE-72" connectable="0" vertex="1">
                    <mxGeometry width="50" height="55" as="geometry"/>
                </mxCell>
                <mxCell id="hJOwUByF51vyl-JDJ4wE-74" value="" style="rounded=0;whiteSpace=wrap;html=1;" parent="hJOwUByF51vyl-JDJ4wE-73" vertex="1">
                    <mxGeometry width="50" height="55" as="geometry"/>
                </mxCell>
                <mxCell id="hJOwUByF51vyl-JDJ4wE-75" value="" style="endArrow=none;html=1;rounded=0;entryX=0;entryY=0;entryDx=0;entryDy=0;exitX=1;exitY=1;exitDx=0;exitDy=0;" parent="hJOwUByF51vyl-JDJ4wE-73" source="hJOwUByF51vyl-JDJ4wE-74" target="hJOwUByF51vyl-JDJ4wE-74" edge="1">
                    <mxGeometry width="50" height="50" relative="1" as="geometry">
                        <mxPoint x="350" y="282.5" as="sourcePoint"/>
                        <mxPoint x="400" y="232.5" as="targetPoint"/>
                    </mxGeometry>
                </mxCell>
                <mxCell id="hJOwUByF51vyl-JDJ4wE-76" value="" style="endArrow=none;html=1;rounded=0;exitX=0;exitY=1;exitDx=0;exitDy=0;entryX=1;entryY=0;entryDx=0;entryDy=0;" parent="hJOwUByF51vyl-JDJ4wE-73" source="hJOwUByF51vyl-JDJ4wE-74" target="hJOwUByF51vyl-JDJ4wE-74" edge="1">
                    <mxGeometry width="50" height="50" relative="1" as="geometry">
                        <mxPoint x="-60" y="42.5" as="sourcePoint"/>
                        <mxPoint x="-20" y="0.5" as="targetPoint"/>
                        <Array as="points"/>
                    </mxGeometry>
                </mxCell>
                <mxCell id="hJOwUByF51vyl-JDJ4wE-78" value="&lt;font style=&quot;font-size: 11px;&quot; color=&quot;#ffffff&quot;&gt;Copyright ©2022 Dunfermline Men's Shed, All Rights Reserved.&lt;/font&gt;" style="text;html=1;strokeColor=none;fillColor=none;align=center;verticalAlign=middle;whiteSpace=wrap;rounded=0;fontSize=17;" parent="1" vertex="1">
                    <mxGeometry x="80" y="840" width="550" height="32.5" as="geometry"/>
                </mxCell>
                <mxCell id="1GPActvUETy4tFqBlGES-3" value="&lt;font color=&quot;#ffffff&quot;&gt;| Privacy Notice | Terms &amp;amp; Conditions |&amp;nbsp;&lt;/font&gt;" style="text;html=1;strokeColor=none;fillColor=none;align=center;verticalAlign=middle;whiteSpace=wrap;rounded=0;" parent="1" vertex="1">
                    <mxGeometry x="150" y="827.5" width="400" height="30" as="geometry"/>
                </mxCell>
                <mxCell id="1GPActvUETy4tFqBlGES-8" value="&lt;p style=&quot;line-height: 30%;&quot;&gt;&lt;/p&gt;&lt;h1 style=&quot;line-height: 40%;&quot;&gt;&lt;span style=&quot;font-size: 12px; font-weight: 400;&quot;&gt;Dunfermline Men's Shed&amp;nbsp;&lt;/span&gt;&lt;/h1&gt;&lt;div style=&quot;line-height: 70%;&quot;&gt;&lt;span style=&quot;font-size: 12px; font-weight: 400;&quot;&gt;The Steadings, Pittencrieff Park&lt;/span&gt;&lt;/div&gt;&lt;div&gt;Dunfermline&lt;/div&gt;&lt;div style=&quot;line-height: 100%;&quot;&gt;&lt;span style=&quot;background-color: initial; font-size: 12px; font-weight: normal;&quot;&gt;KY12 8QH&lt;/span&gt;&lt;/div&gt;&lt;div style=&quot;line-height: 100%;&quot;&gt;&lt;br&gt;&lt;/div&gt;&lt;div style=&quot;line-height: 100%;&quot;&gt;01383 650355&lt;br&gt;&lt;/div&gt;&lt;p&gt;&lt;/p&gt;" style="text;html=1;strokeColor=none;fillColor=none;spacing=5;spacingTop=-20;whiteSpace=wrap;overflow=hidden;rounded=0;fontColor=#FFFFFF;" parent="1" vertex="1">
                    <mxGeometry x="110" y="720" width="190" height="120" as="geometry"/>
                </mxCell>
                <mxCell id="QSaLO5McP_NtiIt2kQxG-1" value="" style="rounded=0;whiteSpace=wrap;html=1;fillColor=#004AAD;strokeColor=none;" parent="1" vertex="1">
                    <mxGeometry x="50" y="490" width="630" height="20" as="geometry"/>
                </mxCell>
            </root>
        </mxGraphModel>
    </diagram>
    <diagram id="K19AXQP7x0-BJFwimIHx" name="About Us">
        <mxGraphModel dx="1136" dy="468" grid="1" gridSize="10" guides="1" tooltips="1" connect="1" arrows="1" fold="1" page="1" pageScale="1" pageWidth="850" pageHeight="1100" math="0" shadow="0">
            <root>
                <mxCell id="0"/>
                <mxCell id="1" parent="0"/>
                <mxCell id="lql8zvATYc9-aMYjG7WY-1" value="" style="whiteSpace=wrap;html=1;strokeWidth=1;" parent="1" vertex="1">
                    <mxGeometry x="50" y="30" width="630" height="1530" as="geometry"/>
                </mxCell>
                <mxCell id="lql8zvATYc9-aMYjG7WY-2" value="" style="rounded=0;whiteSpace=wrap;html=1;fillColor=#004AAD;strokeColor=none;" parent="1" vertex="1">
                    <mxGeometry x="50" y="30" width="630" height="20" as="geometry"/>
                </mxCell>
                <mxCell id="lql8zvATYc9-aMYjG7WY-3" value="" style="group" parent="1" connectable="0" vertex="1">
                    <mxGeometry x="80" y="60" width="50" height="55" as="geometry"/>
                </mxCell>
                <mxCell id="lql8zvATYc9-aMYjG7WY-4" value="" style="group" parent="lql8zvATYc9-aMYjG7WY-3" connectable="0" vertex="1">
                    <mxGeometry width="50" height="55" as="geometry"/>
                </mxCell>
                <mxCell id="lql8zvATYc9-aMYjG7WY-5" value="" style="rounded=0;whiteSpace=wrap;html=1;" parent="lql8zvATYc9-aMYjG7WY-4" vertex="1">
                    <mxGeometry width="50" height="55" as="geometry"/>
                </mxCell>
                <mxCell id="lql8zvATYc9-aMYjG7WY-6" value="" style="endArrow=none;html=1;rounded=0;entryX=0;entryY=0;entryDx=0;entryDy=0;exitX=1;exitY=1;exitDx=0;exitDy=0;" parent="lql8zvATYc9-aMYjG7WY-4" source="lql8zvATYc9-aMYjG7WY-5" target="lql8zvATYc9-aMYjG7WY-5" edge="1">
                    <mxGeometry width="50" height="50" relative="1" as="geometry">
                        <mxPoint x="350" y="282.5" as="sourcePoint"/>
                        <mxPoint x="400" y="232.5" as="targetPoint"/>
                    </mxGeometry>
                </mxCell>
                <mxCell id="lql8zvATYc9-aMYjG7WY-7" value="" style="endArrow=none;html=1;rounded=0;exitX=0;exitY=1;exitDx=0;exitDy=0;entryX=1;entryY=0;entryDx=0;entryDy=0;" parent="lql8zvATYc9-aMYjG7WY-4" source="lql8zvATYc9-aMYjG7WY-5" target="lql8zvATYc9-aMYjG7WY-5" edge="1">
                    <mxGeometry width="50" height="50" relative="1" as="geometry">
                        <mxPoint x="-60" y="42.5" as="sourcePoint"/>
                        <mxPoint x="-20" y="0.5" as="targetPoint"/>
                        <Array as="points"/>
                    </mxGeometry>
                </mxCell>
                <mxCell id="lql8zvATYc9-aMYjG7WY-8" value="Dunfermline Men's Shed" style="text;html=1;strokeColor=none;fillColor=none;align=center;verticalAlign=middle;whiteSpace=wrap;rounded=0;" parent="1" vertex="1">
                    <mxGeometry x="120" y="72.5" width="160" height="30" as="geometry"/>
                </mxCell>
                <mxCell id="lql8zvATYc9-aMYjG7WY-9" value="" style="endArrow=none;html=1;rounded=0;" parent="1" edge="1">
                    <mxGeometry width="50" height="50" relative="1" as="geometry">
                        <mxPoint x="50" y="120" as="sourcePoint"/>
                        <mxPoint x="680" y="120" as="targetPoint"/>
                    </mxGeometry>
                </mxCell>
                <mxCell id="lql8zvATYc9-aMYjG7WY-10" value="Home" style="text;html=1;strokeColor=none;fillColor=none;align=center;verticalAlign=middle;whiteSpace=wrap;rounded=0;" parent="1" vertex="1">
                    <mxGeometry x="310" y="72.5" width="60" height="30" as="geometry"/>
                </mxCell>
                <mxCell id="lql8zvATYc9-aMYjG7WY-11" value="&lt;u&gt;About Us&lt;/u&gt;" style="text;html=1;strokeColor=none;fillColor=none;align=center;verticalAlign=middle;whiteSpace=wrap;rounded=0;" parent="1" vertex="1">
                    <mxGeometry x="383" y="72.5" width="60" height="30" as="geometry"/>
                </mxCell>
                <mxCell id="lql8zvATYc9-aMYjG7WY-12" value="Resource Library" style="text;html=1;strokeColor=none;fillColor=none;align=center;verticalAlign=middle;whiteSpace=wrap;rounded=0;" parent="1" vertex="1">
                    <mxGeometry x="455" y="72.5" width="60" height="30" as="geometry"/>
                </mxCell>
                <mxCell id="lql8zvATYc9-aMYjG7WY-13" value="Booking" style="text;html=1;strokeColor=none;fillColor=none;align=center;verticalAlign=middle;whiteSpace=wrap;rounded=0;" parent="1" vertex="1">
                    <mxGeometry x="528" y="72.5" width="60" height="30" as="geometry"/>
                </mxCell>
                <mxCell id="lql8zvATYc9-aMYjG7WY-14" value="Support" style="text;html=1;strokeColor=none;fillColor=none;align=center;verticalAlign=middle;whiteSpace=wrap;rounded=0;" parent="1" vertex="1">
                    <mxGeometry x="600" y="72.5" width="60" height="30" as="geometry"/>
                </mxCell>
                <mxCell id="lql8zvATYc9-aMYjG7WY-15" value="" style="rounded=0;whiteSpace=wrap;html=1;fillColor=#004AAD;strokeColor=none;" parent="1" vertex="1">
                    <mxGeometry x="50" y="30" width="20" height="1420" as="geometry"/>
                </mxCell>
                <mxCell id="lql8zvATYc9-aMYjG7WY-16" value="" style="group" parent="1" connectable="0" vertex="1">
                    <mxGeometry x="80" y="130" width="590" height="140" as="geometry"/>
                </mxCell>
                <mxCell id="lql8zvATYc9-aMYjG7WY-17" value="" style="group" parent="lql8zvATYc9-aMYjG7WY-16" connectable="0" vertex="1">
                    <mxGeometry width="590" height="140" as="geometry"/>
                </mxCell>
                <mxCell id="lql8zvATYc9-aMYjG7WY-18" value="" style="rounded=0;whiteSpace=wrap;html=1;" parent="lql8zvATYc9-aMYjG7WY-17" vertex="1">
                    <mxGeometry width="590" height="140" as="geometry"/>
                </mxCell>
                <mxCell id="lql8zvATYc9-aMYjG7WY-19" value="" style="endArrow=none;html=1;rounded=0;entryX=0;entryY=0;entryDx=0;entryDy=0;exitX=1;exitY=1;exitDx=0;exitDy=0;" parent="lql8zvATYc9-aMYjG7WY-17" source="lql8zvATYc9-aMYjG7WY-18" target="lql8zvATYc9-aMYjG7WY-18" edge="1">
                    <mxGeometry width="50" height="50" relative="1" as="geometry">
                        <mxPoint x="4130" y="719.0909090909091" as="sourcePoint"/>
                        <mxPoint x="4720" y="591.8181818181818" as="targetPoint"/>
                    </mxGeometry>
                </mxCell>
                <mxCell id="lql8zvATYc9-aMYjG7WY-20" value="" style="endArrow=none;html=1;rounded=0;exitX=0;exitY=1;exitDx=0;exitDy=0;entryX=1;entryY=0;entryDx=0;entryDy=0;" parent="lql8zvATYc9-aMYjG7WY-17" source="lql8zvATYc9-aMYjG7WY-18" target="lql8zvATYc9-aMYjG7WY-18" edge="1">
                    <mxGeometry width="50" height="50" relative="1" as="geometry">
                        <mxPoint x="-708" y="108.18181818181819" as="sourcePoint"/>
                        <mxPoint x="-236" y="1.2727272727272727" as="targetPoint"/>
                        <Array as="points"/>
                    </mxGeometry>
                </mxCell>
                <mxCell id="lql8zvATYc9-aMYjG7WY-21" value="&lt;h1&gt;&lt;font style=&quot;font-size: 17px;&quot;&gt;Company History&lt;/font&gt;&lt;/h1&gt;&lt;p&gt;Lorem ipsum dolor sit amet, consectetur adipisicing elit, sed do eiusmod tempor incididunt ut labore et dolore magna aliqua.&lt;/p&gt;&lt;p&gt;Lorem ipsum dolor sit amet, consectetur adipisicing elit, sed do eiusmod tempor incididunt ut labore et dolore magna aliqua.&lt;br&gt;&lt;/p&gt;" style="text;html=1;strokeColor=none;fillColor=none;spacing=5;spacingTop=-20;whiteSpace=wrap;overflow=hidden;rounded=0;" parent="1" vertex="1">
                    <mxGeometry x="80" y="280" width="590" height="220" as="geometry"/>
                </mxCell>
                <mxCell id="lql8zvATYc9-aMYjG7WY-36" value="&lt;h1&gt;&lt;span style=&quot;font-size: 17px;&quot;&gt;Mission Statement&lt;/span&gt;&lt;/h1&gt;&lt;p&gt;Lorem ipsum dolor sit amet, consectetur adipisicing elit, sed do eiusmod tempor incididunt ut labore et dolore magna aliqua.&lt;br&gt;&lt;/p&gt;" style="text;html=1;strokeColor=none;fillColor=none;spacing=5;spacingTop=-20;whiteSpace=wrap;overflow=hidden;rounded=0;" parent="1" vertex="1">
                    <mxGeometry x="80" y="410" width="210" height="160" as="geometry"/>
                </mxCell>
                <mxCell id="lql8zvATYc9-aMYjG7WY-37" value="&lt;h1&gt;&lt;span style=&quot;background-color: initial; font-size: 17px;&quot;&gt;Annual Report&lt;/span&gt;&lt;/h1&gt;&lt;p&gt;Showing information on the Scottish Mens Shed Association&amp;nbsp;&lt;/p&gt;&lt;p&gt;https://scottishmsa.org.uk&lt;br&gt;&lt;/p&gt;" style="text;html=1;strokeColor=none;fillColor=none;spacing=5;spacingTop=-20;whiteSpace=wrap;overflow=hidden;rounded=0;" parent="1" vertex="1">
                    <mxGeometry x="383" y="410" width="210" height="190" as="geometry"/>
                </mxCell>
                <mxCell id="JWjGEJSA4veozK6pkb23-1" value="&lt;h1&gt;&lt;font color=&quot;#000000&quot;&gt;Dunfermline Men's Shed Commitee&lt;/font&gt;&lt;/h1&gt;&lt;p style=&quot;text-align: center;&quot;&gt;&lt;font color=&quot;#000000&quot;&gt;We have 8 team members...&lt;/font&gt;&lt;/p&gt;" style="text;html=1;strokeColor=none;fillColor=none;spacing=5;spacingTop=-20;whiteSpace=wrap;overflow=hidden;rounded=0;fontColor=#FFFFFF;" parent="1" vertex="1">
                    <mxGeometry x="133" y="590" width="427" height="70" as="geometry"/>
                </mxCell>
                <mxCell id="3DqIBd4oMEZGrWCqgWxI-1" value="" style="group" parent="1" connectable="0" vertex="1">
                    <mxGeometry x="100" y="690" width="70" height="100" as="geometry"/>
                </mxCell>
                <mxCell id="3DqIBd4oMEZGrWCqgWxI-2" value="" style="group" parent="3DqIBd4oMEZGrWCqgWxI-1" connectable="0" vertex="1">
                    <mxGeometry width="70" height="100" as="geometry"/>
                </mxCell>
                <mxCell id="3DqIBd4oMEZGrWCqgWxI-3" value="" style="rounded=0;whiteSpace=wrap;html=1;" parent="3DqIBd4oMEZGrWCqgWxI-2" vertex="1">
                    <mxGeometry width="70" height="100" as="geometry"/>
                </mxCell>
                <mxCell id="3DqIBd4oMEZGrWCqgWxI-4" value="" style="endArrow=none;html=1;rounded=0;entryX=0;entryY=0;entryDx=0;entryDy=0;exitX=1;exitY=1;exitDx=0;exitDy=0;" parent="3DqIBd4oMEZGrWCqgWxI-2" source="3DqIBd4oMEZGrWCqgWxI-3" target="3DqIBd4oMEZGrWCqgWxI-3" edge="1">
                    <mxGeometry width="50" height="50" relative="1" as="geometry">
                        <mxPoint x="489.99999999999994" y="513.6363636363636" as="sourcePoint"/>
                        <mxPoint x="560" y="422.72727272727275" as="targetPoint"/>
                    </mxGeometry>
                </mxCell>
                <mxCell id="3DqIBd4oMEZGrWCqgWxI-5" value="" style="endArrow=none;html=1;rounded=0;exitX=0;exitY=1;exitDx=0;exitDy=0;entryX=1;entryY=0;entryDx=0;entryDy=0;" parent="3DqIBd4oMEZGrWCqgWxI-2" source="3DqIBd4oMEZGrWCqgWxI-3" target="3DqIBd4oMEZGrWCqgWxI-3" edge="1">
                    <mxGeometry width="50" height="50" relative="1" as="geometry">
                        <mxPoint x="-84" y="77.27272727272728" as="sourcePoint"/>
                        <mxPoint x="-28" y="0.9090909090909092" as="targetPoint"/>
                        <Array as="points"/>
                    </mxGeometry>
                </mxCell>
                <mxCell id="3DqIBd4oMEZGrWCqgWxI-6" value="&lt;h1&gt;&lt;font style=&quot;font-size: 18px;&quot;&gt;Ron Skirving&lt;/font&gt;&lt;/h1&gt;&lt;p&gt;Lorem ipsum dolor sit amet, consectetur adipisicing elit, sed do eiusmod tempor incididunt ut labore et dolore magna aliqua.&lt;/p&gt;" style="text;html=1;strokeColor=none;fillColor=none;spacing=5;spacingTop=-20;whiteSpace=wrap;overflow=hidden;rounded=0;fontColor=#000000;" parent="1" vertex="1">
                    <mxGeometry x="180" y="690" width="170" height="140" as="geometry"/>
                </mxCell>
                <mxCell id="3DqIBd4oMEZGrWCqgWxI-7" value="" style="group" parent="1" connectable="0" vertex="1">
                    <mxGeometry x="383" y="690" width="70" height="100" as="geometry"/>
                </mxCell>
                <mxCell id="3DqIBd4oMEZGrWCqgWxI-8" value="" style="group" parent="3DqIBd4oMEZGrWCqgWxI-7" connectable="0" vertex="1">
                    <mxGeometry width="70" height="100" as="geometry"/>
                </mxCell>
                <mxCell id="3DqIBd4oMEZGrWCqgWxI-9" value="" style="rounded=0;whiteSpace=wrap;html=1;" parent="3DqIBd4oMEZGrWCqgWxI-8" vertex="1">
                    <mxGeometry width="70" height="100" as="geometry"/>
                </mxCell>
                <mxCell id="3DqIBd4oMEZGrWCqgWxI-10" value="" style="endArrow=none;html=1;rounded=0;entryX=0;entryY=0;entryDx=0;entryDy=0;exitX=1;exitY=1;exitDx=0;exitDy=0;" parent="3DqIBd4oMEZGrWCqgWxI-8" source="3DqIBd4oMEZGrWCqgWxI-9" target="3DqIBd4oMEZGrWCqgWxI-9" edge="1">
                    <mxGeometry width="50" height="50" relative="1" as="geometry">
                        <mxPoint x="489.99999999999994" y="513.6363636363636" as="sourcePoint"/>
                        <mxPoint x="560" y="422.72727272727275" as="targetPoint"/>
                    </mxGeometry>
                </mxCell>
                <mxCell id="3DqIBd4oMEZGrWCqgWxI-11" value="" style="endArrow=none;html=1;rounded=0;exitX=0;exitY=1;exitDx=0;exitDy=0;entryX=1;entryY=0;entryDx=0;entryDy=0;" parent="3DqIBd4oMEZGrWCqgWxI-8" source="3DqIBd4oMEZGrWCqgWxI-9" target="3DqIBd4oMEZGrWCqgWxI-9" edge="1">
                    <mxGeometry width="50" height="50" relative="1" as="geometry">
                        <mxPoint x="-84" y="77.27272727272728" as="sourcePoint"/>
                        <mxPoint x="-28" y="0.9090909090909092" as="targetPoint"/>
                        <Array as="points"/>
                    </mxGeometry>
                </mxCell>
                <mxCell id="3DqIBd4oMEZGrWCqgWxI-12" value="&lt;h1&gt;&lt;font style=&quot;font-size: 18px;&quot;&gt;Jim Leishman&lt;/font&gt;&lt;/h1&gt;&lt;p&gt;Lorem ipsum dolor sit amet, consectetur adipisicing elit, sed do eiusmod tempor incididunt ut labore et dolore magna aliqua.&lt;/p&gt;" style="text;html=1;strokeColor=none;fillColor=none;spacing=5;spacingTop=-20;whiteSpace=wrap;overflow=hidden;rounded=0;fontColor=#000000;" parent="1" vertex="1">
                    <mxGeometry x="463" y="690" width="177" height="140" as="geometry"/>
                </mxCell>
                <mxCell id="3DqIBd4oMEZGrWCqgWxI-13" value="" style="group" parent="1" connectable="0" vertex="1">
                    <mxGeometry x="100" y="830" width="70" height="100" as="geometry"/>
                </mxCell>
                <mxCell id="3DqIBd4oMEZGrWCqgWxI-14" value="" style="group" parent="3DqIBd4oMEZGrWCqgWxI-13" connectable="0" vertex="1">
                    <mxGeometry width="70" height="100" as="geometry"/>
                </mxCell>
                <mxCell id="3DqIBd4oMEZGrWCqgWxI-15" value="" style="rounded=0;whiteSpace=wrap;html=1;" parent="3DqIBd4oMEZGrWCqgWxI-14" vertex="1">
                    <mxGeometry width="70" height="100" as="geometry"/>
                </mxCell>
                <mxCell id="3DqIBd4oMEZGrWCqgWxI-16" value="" style="endArrow=none;html=1;rounded=0;entryX=0;entryY=0;entryDx=0;entryDy=0;exitX=1;exitY=1;exitDx=0;exitDy=0;" parent="3DqIBd4oMEZGrWCqgWxI-14" source="3DqIBd4oMEZGrWCqgWxI-15" target="3DqIBd4oMEZGrWCqgWxI-15" edge="1">
                    <mxGeometry width="50" height="50" relative="1" as="geometry">
                        <mxPoint x="489.99999999999994" y="513.6363636363636" as="sourcePoint"/>
                        <mxPoint x="560" y="422.72727272727275" as="targetPoint"/>
                    </mxGeometry>
                </mxCell>
                <mxCell id="3DqIBd4oMEZGrWCqgWxI-17" value="" style="endArrow=none;html=1;rounded=0;exitX=0;exitY=1;exitDx=0;exitDy=0;entryX=1;entryY=0;entryDx=0;entryDy=0;" parent="3DqIBd4oMEZGrWCqgWxI-14" source="3DqIBd4oMEZGrWCqgWxI-15" target="3DqIBd4oMEZGrWCqgWxI-15" edge="1">
                    <mxGeometry width="50" height="50" relative="1" as="geometry">
                        <mxPoint x="-84" y="77.27272727272728" as="sourcePoint"/>
                        <mxPoint x="-28" y="0.9090909090909092" as="targetPoint"/>
                        <Array as="points"/>
                    </mxGeometry>
                </mxCell>
                <mxCell id="3DqIBd4oMEZGrWCqgWxI-18" value="&lt;h1&gt;&lt;font style=&quot;font-size: 18px;&quot;&gt;Mike Rowlinson&lt;/font&gt;&lt;/h1&gt;&lt;p&gt;Lorem ipsum dolor sit amet, consectetur adipisicing elit, sed do eiusmod tempor incididunt ut labore et dolore magna aliqua.&lt;/p&gt;" style="text;html=1;strokeColor=none;fillColor=none;spacing=5;spacingTop=-20;whiteSpace=wrap;overflow=hidden;rounded=0;fontColor=#000000;" parent="1" vertex="1">
                    <mxGeometry x="180" y="830" width="170" height="140" as="geometry"/>
                </mxCell>
                <mxCell id="3DqIBd4oMEZGrWCqgWxI-19" value="" style="group" parent="1" connectable="0" vertex="1">
                    <mxGeometry x="383" y="830" width="70" height="100" as="geometry"/>
                </mxCell>
                <mxCell id="3DqIBd4oMEZGrWCqgWxI-20" value="" style="group" parent="3DqIBd4oMEZGrWCqgWxI-19" connectable="0" vertex="1">
                    <mxGeometry width="70" height="100" as="geometry"/>
                </mxCell>
                <mxCell id="3DqIBd4oMEZGrWCqgWxI-21" value="" style="rounded=0;whiteSpace=wrap;html=1;" parent="3DqIBd4oMEZGrWCqgWxI-20" vertex="1">
                    <mxGeometry width="70" height="100" as="geometry"/>
                </mxCell>
                <mxCell id="3DqIBd4oMEZGrWCqgWxI-22" value="" style="endArrow=none;html=1;rounded=0;entryX=0;entryY=0;entryDx=0;entryDy=0;exitX=1;exitY=1;exitDx=0;exitDy=0;" parent="3DqIBd4oMEZGrWCqgWxI-20" source="3DqIBd4oMEZGrWCqgWxI-21" target="3DqIBd4oMEZGrWCqgWxI-21" edge="1">
                    <mxGeometry width="50" height="50" relative="1" as="geometry">
                        <mxPoint x="489.99999999999994" y="513.6363636363636" as="sourcePoint"/>
                        <mxPoint x="560" y="422.72727272727275" as="targetPoint"/>
                    </mxGeometry>
                </mxCell>
                <mxCell id="3DqIBd4oMEZGrWCqgWxI-23" value="" style="endArrow=none;html=1;rounded=0;exitX=0;exitY=1;exitDx=0;exitDy=0;entryX=1;entryY=0;entryDx=0;entryDy=0;" parent="3DqIBd4oMEZGrWCqgWxI-20" source="3DqIBd4oMEZGrWCqgWxI-21" target="3DqIBd4oMEZGrWCqgWxI-21" edge="1">
                    <mxGeometry width="50" height="50" relative="1" as="geometry">
                        <mxPoint x="-84" y="77.27272727272728" as="sourcePoint"/>
                        <mxPoint x="-28" y="0.9090909090909092" as="targetPoint"/>
                        <Array as="points"/>
                    </mxGeometry>
                </mxCell>
                <mxCell id="3DqIBd4oMEZGrWCqgWxI-24" value="&lt;h1 style=&quot;font-size: 18px;&quot;&gt;Richard Lawrence&lt;/h1&gt;&lt;p&gt;Lorem ipsum dolor sit amet, consectetur adipisicing elit, sed do eiusmod tempor incididunt ut labore et dolore magna aliqua.&lt;/p&gt;" style="text;html=1;strokeColor=none;fillColor=none;spacing=5;spacingTop=-20;whiteSpace=wrap;overflow=hidden;rounded=0;fontColor=#000000;" parent="1" vertex="1">
                    <mxGeometry x="463" y="830" width="167" height="140" as="geometry"/>
                </mxCell>
                <mxCell id="3DqIBd4oMEZGrWCqgWxI-33" value="" style="group" parent="1" connectable="0" vertex="1">
                    <mxGeometry x="100" y="960" width="70" height="100" as="geometry"/>
                </mxCell>
                <mxCell id="3DqIBd4oMEZGrWCqgWxI-34" value="" style="group" parent="3DqIBd4oMEZGrWCqgWxI-33" connectable="0" vertex="1">
                    <mxGeometry width="70" height="100" as="geometry"/>
                </mxCell>
                <mxCell id="3DqIBd4oMEZGrWCqgWxI-35" value="" style="rounded=0;whiteSpace=wrap;html=1;" parent="3DqIBd4oMEZGrWCqgWxI-34" vertex="1">
                    <mxGeometry width="70" height="100" as="geometry"/>
                </mxCell>
                <mxCell id="3DqIBd4oMEZGrWCqgWxI-36" value="" style="endArrow=none;html=1;rounded=0;entryX=0;entryY=0;entryDx=0;entryDy=0;exitX=1;exitY=1;exitDx=0;exitDy=0;" parent="3DqIBd4oMEZGrWCqgWxI-34" source="3DqIBd4oMEZGrWCqgWxI-35" target="3DqIBd4oMEZGrWCqgWxI-35" edge="1">
                    <mxGeometry width="50" height="50" relative="1" as="geometry">
                        <mxPoint x="489.99999999999994" y="513.6363636363636" as="sourcePoint"/>
                        <mxPoint x="560" y="422.72727272727275" as="targetPoint"/>
                    </mxGeometry>
                </mxCell>
                <mxCell id="3DqIBd4oMEZGrWCqgWxI-37" value="" style="endArrow=none;html=1;rounded=0;exitX=0;exitY=1;exitDx=0;exitDy=0;entryX=1;entryY=0;entryDx=0;entryDy=0;" parent="3DqIBd4oMEZGrWCqgWxI-34" source="3DqIBd4oMEZGrWCqgWxI-35" target="3DqIBd4oMEZGrWCqgWxI-35" edge="1">
                    <mxGeometry width="50" height="50" relative="1" as="geometry">
                        <mxPoint x="-84" y="77.27272727272728" as="sourcePoint"/>
                        <mxPoint x="-28" y="0.9090909090909092" as="targetPoint"/>
                        <Array as="points"/>
                    </mxGeometry>
                </mxCell>
                <mxCell id="3DqIBd4oMEZGrWCqgWxI-38" value="&lt;h1 style=&quot;font-size: 18px;&quot;&gt;Jim Myles&lt;/h1&gt;&lt;p&gt;Lorem ipsum dolor sit amet, consectetur adipisicing elit, sed do eiusmod tempor incididunt ut labore et dolore magna aliqua.&lt;/p&gt;" style="text;html=1;strokeColor=none;fillColor=none;spacing=5;spacingTop=-20;whiteSpace=wrap;overflow=hidden;rounded=0;fontColor=#000000;" parent="1" vertex="1">
                    <mxGeometry x="180" y="960" width="170" height="140" as="geometry"/>
                </mxCell>
                <mxCell id="3DqIBd4oMEZGrWCqgWxI-39" value="" style="group" parent="1" connectable="0" vertex="1">
                    <mxGeometry x="383" y="960" width="70" height="100" as="geometry"/>
                </mxCell>
                <mxCell id="3DqIBd4oMEZGrWCqgWxI-40" value="" style="group" parent="3DqIBd4oMEZGrWCqgWxI-39" connectable="0" vertex="1">
                    <mxGeometry width="70" height="100" as="geometry"/>
                </mxCell>
                <mxCell id="3DqIBd4oMEZGrWCqgWxI-41" value="" style="rounded=0;whiteSpace=wrap;html=1;" parent="3DqIBd4oMEZGrWCqgWxI-40" vertex="1">
                    <mxGeometry width="70" height="100" as="geometry"/>
                </mxCell>
                <mxCell id="3DqIBd4oMEZGrWCqgWxI-42" value="" style="endArrow=none;html=1;rounded=0;entryX=0;entryY=0;entryDx=0;entryDy=0;exitX=1;exitY=1;exitDx=0;exitDy=0;" parent="3DqIBd4oMEZGrWCqgWxI-40" source="3DqIBd4oMEZGrWCqgWxI-41" target="3DqIBd4oMEZGrWCqgWxI-41" edge="1">
                    <mxGeometry width="50" height="50" relative="1" as="geometry">
                        <mxPoint x="489.99999999999994" y="513.6363636363636" as="sourcePoint"/>
                        <mxPoint x="560" y="422.72727272727275" as="targetPoint"/>
                    </mxGeometry>
                </mxCell>
                <mxCell id="3DqIBd4oMEZGrWCqgWxI-43" value="" style="endArrow=none;html=1;rounded=0;exitX=0;exitY=1;exitDx=0;exitDy=0;entryX=1;entryY=0;entryDx=0;entryDy=0;" parent="3DqIBd4oMEZGrWCqgWxI-40" source="3DqIBd4oMEZGrWCqgWxI-41" target="3DqIBd4oMEZGrWCqgWxI-41" edge="1">
                    <mxGeometry width="50" height="50" relative="1" as="geometry">
                        <mxPoint x="-84" y="77.27272727272728" as="sourcePoint"/>
                        <mxPoint x="-28" y="0.9090909090909092" as="targetPoint"/>
                        <Array as="points"/>
                    </mxGeometry>
                </mxCell>
                <mxCell id="3DqIBd4oMEZGrWCqgWxI-44" value="&lt;h1&gt;&lt;font style=&quot;font-size: 18px;&quot;&gt;Neil Lyndon&lt;/font&gt;&lt;/h1&gt;&lt;p&gt;Lorem ipsum dolor sit amet, consectetur adipisicing elit, sed do eiusmod tempor incididunt ut labore et dolore magna aliqua.&lt;/p&gt;" style="text;html=1;strokeColor=none;fillColor=none;spacing=5;spacingTop=-20;whiteSpace=wrap;overflow=hidden;rounded=0;fontColor=#000000;" parent="1" vertex="1">
                    <mxGeometry x="463" y="960" width="167" height="140" as="geometry"/>
                </mxCell>
                <mxCell id="3DqIBd4oMEZGrWCqgWxI-45" value="" style="group" parent="1" connectable="0" vertex="1">
                    <mxGeometry x="100" y="1100" width="70" height="100" as="geometry"/>
                </mxCell>
                <mxCell id="3DqIBd4oMEZGrWCqgWxI-46" value="" style="group" parent="3DqIBd4oMEZGrWCqgWxI-45" connectable="0" vertex="1">
                    <mxGeometry width="70" height="100" as="geometry"/>
                </mxCell>
                <mxCell id="3DqIBd4oMEZGrWCqgWxI-47" value="" style="rounded=0;whiteSpace=wrap;html=1;" parent="3DqIBd4oMEZGrWCqgWxI-46" vertex="1">
                    <mxGeometry width="70" height="100" as="geometry"/>
                </mxCell>
                <mxCell id="3DqIBd4oMEZGrWCqgWxI-48" value="" style="endArrow=none;html=1;rounded=0;entryX=0;entryY=0;entryDx=0;entryDy=0;exitX=1;exitY=1;exitDx=0;exitDy=0;" parent="3DqIBd4oMEZGrWCqgWxI-46" source="3DqIBd4oMEZGrWCqgWxI-47" target="3DqIBd4oMEZGrWCqgWxI-47" edge="1">
                    <mxGeometry width="50" height="50" relative="1" as="geometry">
                        <mxPoint x="489.99999999999994" y="513.6363636363636" as="sourcePoint"/>
                        <mxPoint x="560" y="422.72727272727275" as="targetPoint"/>
                    </mxGeometry>
                </mxCell>
                <mxCell id="3DqIBd4oMEZGrWCqgWxI-49" value="" style="endArrow=none;html=1;rounded=0;exitX=0;exitY=1;exitDx=0;exitDy=0;entryX=1;entryY=0;entryDx=0;entryDy=0;" parent="3DqIBd4oMEZGrWCqgWxI-46" source="3DqIBd4oMEZGrWCqgWxI-47" target="3DqIBd4oMEZGrWCqgWxI-47" edge="1">
                    <mxGeometry width="50" height="50" relative="1" as="geometry">
                        <mxPoint x="-84" y="77.27272727272728" as="sourcePoint"/>
                        <mxPoint x="-28" y="0.9090909090909092" as="targetPoint"/>
                        <Array as="points"/>
                    </mxGeometry>
                </mxCell>
                <mxCell id="3DqIBd4oMEZGrWCqgWxI-50" value="&lt;h1&gt;&lt;font style=&quot;font-size: 18px;&quot;&gt;Ally Craig&lt;/font&gt;&lt;/h1&gt;&lt;p&gt;Lorem ipsum dolor sit amet, consectetur adipisicing elit, sed do eiusmod tempor incididunt ut labore et dolore magna aliqua.&lt;/p&gt;" style="text;html=1;strokeColor=none;fillColor=none;spacing=5;spacingTop=-20;whiteSpace=wrap;overflow=hidden;rounded=0;fontColor=#000000;" parent="1" vertex="1">
                    <mxGeometry x="180" y="1100" width="170" height="140" as="geometry"/>
                </mxCell>
                <mxCell id="3DqIBd4oMEZGrWCqgWxI-51" value="" style="group" parent="1" connectable="0" vertex="1">
                    <mxGeometry x="383" y="1100" width="70" height="100" as="geometry"/>
                </mxCell>
                <mxCell id="3DqIBd4oMEZGrWCqgWxI-52" value="" style="group" parent="3DqIBd4oMEZGrWCqgWxI-51" connectable="0" vertex="1">
                    <mxGeometry width="70" height="100" as="geometry"/>
                </mxCell>
                <mxCell id="3DqIBd4oMEZGrWCqgWxI-53" value="" style="rounded=0;whiteSpace=wrap;html=1;" parent="3DqIBd4oMEZGrWCqgWxI-52" vertex="1">
                    <mxGeometry width="70" height="100" as="geometry"/>
                </mxCell>
                <mxCell id="3DqIBd4oMEZGrWCqgWxI-54" value="" style="endArrow=none;html=1;rounded=0;entryX=0;entryY=0;entryDx=0;entryDy=0;exitX=1;exitY=1;exitDx=0;exitDy=0;" parent="3DqIBd4oMEZGrWCqgWxI-52" source="3DqIBd4oMEZGrWCqgWxI-53" target="3DqIBd4oMEZGrWCqgWxI-53" edge="1">
                    <mxGeometry width="50" height="50" relative="1" as="geometry">
                        <mxPoint x="489.99999999999994" y="513.6363636363636" as="sourcePoint"/>
                        <mxPoint x="560" y="422.72727272727275" as="targetPoint"/>
                    </mxGeometry>
                </mxCell>
                <mxCell id="3DqIBd4oMEZGrWCqgWxI-55" value="" style="endArrow=none;html=1;rounded=0;exitX=0;exitY=1;exitDx=0;exitDy=0;entryX=1;entryY=0;entryDx=0;entryDy=0;" parent="3DqIBd4oMEZGrWCqgWxI-52" source="3DqIBd4oMEZGrWCqgWxI-53" target="3DqIBd4oMEZGrWCqgWxI-53" edge="1">
                    <mxGeometry width="50" height="50" relative="1" as="geometry">
                        <mxPoint x="-84" y="77.27272727272728" as="sourcePoint"/>
                        <mxPoint x="-28" y="0.9090909090909092" as="targetPoint"/>
                        <Array as="points"/>
                    </mxGeometry>
                </mxCell>
                <mxCell id="3DqIBd4oMEZGrWCqgWxI-56" value="&lt;h1 style=&quot;border-color: var(--border-color);&quot;&gt;&lt;font style=&quot;border-color: var(--border-color); font-size: 18px;&quot;&gt;Robin Sharp&lt;/font&gt;&lt;/h1&gt;&lt;h1&gt;&lt;p style=&quot;border-color: var(--border-color); font-size: 12px; font-weight: 400;&quot;&gt;Lorem ipsum dolor sit amet, consectetur adipisicing elit, sed do eiusmod tempor incididunt ut labore et dolore magna aliqua.&lt;/p&gt;&lt;/h1&gt;" style="text;html=1;strokeColor=none;fillColor=none;spacing=5;spacingTop=-20;whiteSpace=wrap;overflow=hidden;rounded=0;fontColor=#000000;" parent="1" vertex="1">
                    <mxGeometry x="463" y="1100" width="177" height="140" as="geometry"/>
                </mxCell>
                <mxCell id="3DqIBd4oMEZGrWCqgWxI-70" value="" style="group" parent="1" connectable="0" vertex="1">
                    <mxGeometry x="100" y="1230" width="70" height="100" as="geometry"/>
                </mxCell>
                <mxCell id="3DqIBd4oMEZGrWCqgWxI-71" value="" style="group" parent="3DqIBd4oMEZGrWCqgWxI-70" connectable="0" vertex="1">
                    <mxGeometry width="70" height="100" as="geometry"/>
                </mxCell>
                <mxCell id="3DqIBd4oMEZGrWCqgWxI-72" value="" style="rounded=0;whiteSpace=wrap;html=1;" parent="3DqIBd4oMEZGrWCqgWxI-71" vertex="1">
                    <mxGeometry width="70" height="100" as="geometry"/>
                </mxCell>
                <mxCell id="3DqIBd4oMEZGrWCqgWxI-73" value="" style="endArrow=none;html=1;rounded=0;entryX=0;entryY=0;entryDx=0;entryDy=0;exitX=1;exitY=1;exitDx=0;exitDy=0;" parent="3DqIBd4oMEZGrWCqgWxI-71" source="3DqIBd4oMEZGrWCqgWxI-72" target="3DqIBd4oMEZGrWCqgWxI-72" edge="1">
                    <mxGeometry width="50" height="50" relative="1" as="geometry">
                        <mxPoint x="489.99999999999994" y="513.6363636363636" as="sourcePoint"/>
                        <mxPoint x="560" y="422.72727272727275" as="targetPoint"/>
                    </mxGeometry>
                </mxCell>
                <mxCell id="3DqIBd4oMEZGrWCqgWxI-74" value="" style="endArrow=none;html=1;rounded=0;exitX=0;exitY=1;exitDx=0;exitDy=0;entryX=1;entryY=0;entryDx=0;entryDy=0;" parent="3DqIBd4oMEZGrWCqgWxI-71" source="3DqIBd4oMEZGrWCqgWxI-72" target="3DqIBd4oMEZGrWCqgWxI-72" edge="1">
                    <mxGeometry width="50" height="50" relative="1" as="geometry">
                        <mxPoint x="-84" y="77.27272727272728" as="sourcePoint"/>
                        <mxPoint x="-28" y="0.9090909090909092" as="targetPoint"/>
                        <Array as="points"/>
                    </mxGeometry>
                </mxCell>
                <mxCell id="3DqIBd4oMEZGrWCqgWxI-75" value="&lt;h1&gt;&lt;span style=&quot;font-size: 18px;&quot;&gt;Alastair Wood&lt;/span&gt;&lt;/h1&gt;&lt;p&gt;Lorem ipsum dolor sit amet, consectetur adipisicing elit, sed do eiusmod tempor incididunt ut labore et dolore magna aliqua.&lt;/p&gt;" style="text;html=1;strokeColor=none;fillColor=none;spacing=5;spacingTop=-20;whiteSpace=wrap;overflow=hidden;rounded=0;fontColor=#000000;" parent="1" vertex="1">
                    <mxGeometry x="180" y="1230" width="170" height="140" as="geometry"/>
                </mxCell>
                <mxCell id="3DqIBd4oMEZGrWCqgWxI-76" value="" style="group" parent="1" connectable="0" vertex="1">
                    <mxGeometry x="383" y="1230" width="70" height="100" as="geometry"/>
                </mxCell>
                <mxCell id="3DqIBd4oMEZGrWCqgWxI-77" value="" style="group" parent="3DqIBd4oMEZGrWCqgWxI-76" connectable="0" vertex="1">
                    <mxGeometry width="70" height="100" as="geometry"/>
                </mxCell>
                <mxCell id="3DqIBd4oMEZGrWCqgWxI-78" value="" style="rounded=0;whiteSpace=wrap;html=1;" parent="3DqIBd4oMEZGrWCqgWxI-77" vertex="1">
                    <mxGeometry width="70" height="100" as="geometry"/>
                </mxCell>
                <mxCell id="3DqIBd4oMEZGrWCqgWxI-79" value="" style="endArrow=none;html=1;rounded=0;entryX=0;entryY=0;entryDx=0;entryDy=0;exitX=1;exitY=1;exitDx=0;exitDy=0;" parent="3DqIBd4oMEZGrWCqgWxI-77" source="3DqIBd4oMEZGrWCqgWxI-78" target="3DqIBd4oMEZGrWCqgWxI-78" edge="1">
                    <mxGeometry width="50" height="50" relative="1" as="geometry">
                        <mxPoint x="489.99999999999994" y="513.6363636363636" as="sourcePoint"/>
                        <mxPoint x="560" y="422.72727272727275" as="targetPoint"/>
                    </mxGeometry>
                </mxCell>
                <mxCell id="3DqIBd4oMEZGrWCqgWxI-80" value="" style="endArrow=none;html=1;rounded=0;exitX=0;exitY=1;exitDx=0;exitDy=0;entryX=1;entryY=0;entryDx=0;entryDy=0;" parent="3DqIBd4oMEZGrWCqgWxI-77" source="3DqIBd4oMEZGrWCqgWxI-78" target="3DqIBd4oMEZGrWCqgWxI-78" edge="1">
                    <mxGeometry width="50" height="50" relative="1" as="geometry">
                        <mxPoint x="-84" y="77.27272727272728" as="sourcePoint"/>
                        <mxPoint x="-28" y="0.9090909090909092" as="targetPoint"/>
                        <Array as="points"/>
                    </mxGeometry>
                </mxCell>
                <mxCell id="3DqIBd4oMEZGrWCqgWxI-81" value="&lt;h1&gt;&lt;font style=&quot;font-size: 18px;&quot;&gt;Vacancy&lt;/font&gt;&lt;/h1&gt;&lt;p&gt;Contact us if you would like to join.&lt;/p&gt;" style="text;html=1;strokeColor=none;fillColor=none;spacing=5;spacingTop=-20;whiteSpace=wrap;overflow=hidden;rounded=0;fontColor=#000000;" parent="1" vertex="1">
                    <mxGeometry x="463" y="1230" width="177" height="140" as="geometry"/>
                </mxCell>
                <mxCell id="ntHugMfLHQi9zPu6RvR5-19" value="" style="rounded=0;whiteSpace=wrap;html=1;fillColor=#004AAD;strokeColor=none;" parent="1" vertex="1">
                    <mxGeometry x="50" y="1400" width="630" height="160" as="geometry"/>
                </mxCell>
                <mxCell id="ntHugMfLHQi9zPu6RvR5-20" value="" style="group" parent="1" connectable="0" vertex="1">
                    <mxGeometry x="60" y="1410" width="50" height="55" as="geometry"/>
                </mxCell>
                <mxCell id="ntHugMfLHQi9zPu6RvR5-21" value="" style="group" parent="ntHugMfLHQi9zPu6RvR5-20" connectable="0" vertex="1">
                    <mxGeometry width="50" height="55" as="geometry"/>
                </mxCell>
                <mxCell id="ntHugMfLHQi9zPu6RvR5-22" value="" style="rounded=0;whiteSpace=wrap;html=1;" parent="ntHugMfLHQi9zPu6RvR5-21" vertex="1">
                    <mxGeometry width="50" height="55" as="geometry"/>
                </mxCell>
                <mxCell id="ntHugMfLHQi9zPu6RvR5-23" value="" style="endArrow=none;html=1;rounded=0;entryX=0;entryY=0;entryDx=0;entryDy=0;exitX=1;exitY=1;exitDx=0;exitDy=0;" parent="ntHugMfLHQi9zPu6RvR5-21" source="ntHugMfLHQi9zPu6RvR5-22" target="ntHugMfLHQi9zPu6RvR5-22" edge="1">
                    <mxGeometry width="50" height="50" relative="1" as="geometry">
                        <mxPoint x="350" y="282.5" as="sourcePoint"/>
                        <mxPoint x="400" y="232.5" as="targetPoint"/>
                    </mxGeometry>
                </mxCell>
                <mxCell id="ntHugMfLHQi9zPu6RvR5-24" value="" style="endArrow=none;html=1;rounded=0;exitX=0;exitY=1;exitDx=0;exitDy=0;entryX=1;entryY=0;entryDx=0;entryDy=0;" parent="ntHugMfLHQi9zPu6RvR5-21" source="ntHugMfLHQi9zPu6RvR5-22" target="ntHugMfLHQi9zPu6RvR5-22" edge="1">
                    <mxGeometry width="50" height="50" relative="1" as="geometry">
                        <mxPoint x="-60" y="42.5" as="sourcePoint"/>
                        <mxPoint x="-20" y="0.5" as="targetPoint"/>
                        <Array as="points"/>
                    </mxGeometry>
                </mxCell>
                <mxCell id="ntHugMfLHQi9zPu6RvR5-25" value="&lt;font style=&quot;font-size: 11px;&quot; color=&quot;#ffffff&quot;&gt;Copyright ©2022 Dunfermline Men's Shed, All Rights Reserved.&lt;/font&gt;" style="text;html=1;strokeColor=none;fillColor=none;align=center;verticalAlign=middle;whiteSpace=wrap;rounded=0;fontSize=17;" parent="1" vertex="1">
                    <mxGeometry x="80" y="1520" width="550" height="32.5" as="geometry"/>
                </mxCell>
                <mxCell id="ntHugMfLHQi9zPu6RvR5-26" value="&lt;font color=&quot;#ffffff&quot;&gt;| Privacy Notice | Terms &amp;amp; Conditions |&amp;nbsp;&lt;/font&gt;" style="text;html=1;strokeColor=none;fillColor=none;align=center;verticalAlign=middle;whiteSpace=wrap;rounded=0;" parent="1" vertex="1">
                    <mxGeometry x="150" y="1507.5" width="400" height="30" as="geometry"/>
                </mxCell>
                <mxCell id="ntHugMfLHQi9zPu6RvR5-27" value="&lt;p style=&quot;line-height: 30%;&quot;&gt;&lt;/p&gt;&lt;h1 style=&quot;line-height: 40%;&quot;&gt;&lt;span style=&quot;font-size: 12px; font-weight: 400;&quot;&gt;Dunfermline Men's Shed&amp;nbsp;&lt;/span&gt;&lt;/h1&gt;&lt;div style=&quot;line-height: 70%;&quot;&gt;&lt;span style=&quot;font-size: 12px; font-weight: 400;&quot;&gt;The Steadings, Pittencrieff Park&lt;/span&gt;&lt;/div&gt;&lt;div&gt;Dunfermline&lt;/div&gt;&lt;div style=&quot;line-height: 100%;&quot;&gt;&lt;span style=&quot;background-color: initial; font-size: 12px; font-weight: normal;&quot;&gt;KY12 8QH&lt;/span&gt;&lt;/div&gt;&lt;div style=&quot;line-height: 100%;&quot;&gt;&lt;br&gt;&lt;/div&gt;&lt;div style=&quot;line-height: 100%;&quot;&gt;01383 650355&lt;br&gt;&lt;/div&gt;&lt;p&gt;&lt;/p&gt;" style="text;html=1;strokeColor=none;fillColor=none;spacing=5;spacingTop=-20;whiteSpace=wrap;overflow=hidden;rounded=0;fontColor=#FFFFFF;" parent="1" vertex="1">
                    <mxGeometry x="110" y="1400" width="190" height="120" as="geometry"/>
                </mxCell>
                <mxCell id="2AmRUou9n45eMBkE2PEN-1" value="" style="rounded=0;whiteSpace=wrap;html=1;fillColor=#004AAD;strokeColor=none;" parent="1" vertex="1">
                    <mxGeometry x="50" y="560" width="630" height="20" as="geometry"/>
                </mxCell>
            </root>
        </mxGraphModel>
    </diagram>
    <diagram id="A3dpcFfuaD6peU2a0WP5" name="Resource Library">
        <mxGraphModel dx="1136" dy="468" grid="1" gridSize="10" guides="1" tooltips="1" connect="1" arrows="1" fold="1" page="1" pageScale="1" pageWidth="850" pageHeight="1100" math="0" shadow="0">
            <root>
                <mxCell id="0"/>
                <mxCell id="1" parent="0"/>
                <mxCell id="3Vs7PQKg-NsDBRzMTqkH-1" value="" style="whiteSpace=wrap;html=1;strokeWidth=1;" parent="1" vertex="1">
                    <mxGeometry x="50" y="30" width="630" height="1480" as="geometry"/>
                </mxCell>
                <mxCell id="3Vs7PQKg-NsDBRzMTqkH-2" value="" style="rounded=0;whiteSpace=wrap;html=1;fillColor=#004AAD;strokeColor=none;" parent="1" vertex="1">
                    <mxGeometry x="50" y="30" width="630" height="20" as="geometry"/>
                </mxCell>
                <mxCell id="3Vs7PQKg-NsDBRzMTqkH-3" value="" style="group" parent="1" connectable="0" vertex="1">
                    <mxGeometry x="80" y="60" width="50" height="55" as="geometry"/>
                </mxCell>
                <mxCell id="3Vs7PQKg-NsDBRzMTqkH-4" value="" style="group" parent="3Vs7PQKg-NsDBRzMTqkH-3" connectable="0" vertex="1">
                    <mxGeometry width="50" height="55" as="geometry"/>
                </mxCell>
                <mxCell id="3Vs7PQKg-NsDBRzMTqkH-5" value="" style="rounded=0;whiteSpace=wrap;html=1;" parent="3Vs7PQKg-NsDBRzMTqkH-4" vertex="1">
                    <mxGeometry width="50" height="55" as="geometry"/>
                </mxCell>
                <mxCell id="3Vs7PQKg-NsDBRzMTqkH-6" value="" style="endArrow=none;html=1;rounded=0;entryX=0;entryY=0;entryDx=0;entryDy=0;exitX=1;exitY=1;exitDx=0;exitDy=0;" parent="3Vs7PQKg-NsDBRzMTqkH-4" source="3Vs7PQKg-NsDBRzMTqkH-5" target="3Vs7PQKg-NsDBRzMTqkH-5" edge="1">
                    <mxGeometry width="50" height="50" relative="1" as="geometry">
                        <mxPoint x="350" y="282.5" as="sourcePoint"/>
                        <mxPoint x="400" y="232.5" as="targetPoint"/>
                    </mxGeometry>
                </mxCell>
                <mxCell id="3Vs7PQKg-NsDBRzMTqkH-7" value="" style="endArrow=none;html=1;rounded=0;exitX=0;exitY=1;exitDx=0;exitDy=0;entryX=1;entryY=0;entryDx=0;entryDy=0;" parent="3Vs7PQKg-NsDBRzMTqkH-4" source="3Vs7PQKg-NsDBRzMTqkH-5" target="3Vs7PQKg-NsDBRzMTqkH-5" edge="1">
                    <mxGeometry width="50" height="50" relative="1" as="geometry">
                        <mxPoint x="-60" y="42.5" as="sourcePoint"/>
                        <mxPoint x="-20" y="0.5" as="targetPoint"/>
                        <Array as="points"/>
                    </mxGeometry>
                </mxCell>
                <mxCell id="3Vs7PQKg-NsDBRzMTqkH-8" value="Dunfermline Men's Shed" style="text;html=1;strokeColor=none;fillColor=none;align=center;verticalAlign=middle;whiteSpace=wrap;rounded=0;" parent="1" vertex="1">
                    <mxGeometry x="120" y="72.5" width="160" height="30" as="geometry"/>
                </mxCell>
                <mxCell id="3Vs7PQKg-NsDBRzMTqkH-9" value="" style="endArrow=none;html=1;rounded=0;" parent="1" edge="1">
                    <mxGeometry width="50" height="50" relative="1" as="geometry">
                        <mxPoint x="50" y="120" as="sourcePoint"/>
                        <mxPoint x="680" y="120" as="targetPoint"/>
                    </mxGeometry>
                </mxCell>
                <mxCell id="3Vs7PQKg-NsDBRzMTqkH-10" value="Home" style="text;html=1;strokeColor=none;fillColor=none;align=center;verticalAlign=middle;whiteSpace=wrap;rounded=0;" parent="1" vertex="1">
                    <mxGeometry x="310" y="72.5" width="60" height="30" as="geometry"/>
                </mxCell>
                <mxCell id="3Vs7PQKg-NsDBRzMTqkH-11" value="About Us" style="text;html=1;strokeColor=none;fillColor=none;align=center;verticalAlign=middle;whiteSpace=wrap;rounded=0;" parent="1" vertex="1">
                    <mxGeometry x="383" y="72.5" width="60" height="30" as="geometry"/>
                </mxCell>
                <mxCell id="3Vs7PQKg-NsDBRzMTqkH-12" value="&lt;u&gt;Resource Library&lt;/u&gt;" style="text;html=1;strokeColor=none;fillColor=none;align=center;verticalAlign=middle;whiteSpace=wrap;rounded=0;" parent="1" vertex="1">
                    <mxGeometry x="455" y="72.5" width="60" height="30" as="geometry"/>
                </mxCell>
                <mxCell id="3Vs7PQKg-NsDBRzMTqkH-13" value="Booking" style="text;html=1;strokeColor=none;fillColor=none;align=center;verticalAlign=middle;whiteSpace=wrap;rounded=0;" parent="1" vertex="1">
                    <mxGeometry x="528" y="72.5" width="60" height="30" as="geometry"/>
                </mxCell>
                <mxCell id="3Vs7PQKg-NsDBRzMTqkH-14" value="Support" style="text;html=1;strokeColor=none;fillColor=none;align=center;verticalAlign=middle;whiteSpace=wrap;rounded=0;" parent="1" vertex="1">
                    <mxGeometry x="600" y="72.5" width="60" height="30" as="geometry"/>
                </mxCell>
                <mxCell id="3Vs7PQKg-NsDBRzMTqkH-15" value="" style="rounded=0;whiteSpace=wrap;html=1;fillColor=#004AAD;strokeColor=none;" parent="1" vertex="1">
                    <mxGeometry x="50" y="30" width="20" height="1320" as="geometry"/>
                </mxCell>
                <mxCell id="3Vs7PQKg-NsDBRzMTqkH-38" value="" style="rounded=0;whiteSpace=wrap;html=1;fillColor=#004AAD;strokeColor=none;" parent="1" vertex="1">
                    <mxGeometry x="50" y="1350" width="630" height="160" as="geometry"/>
                </mxCell>
                <mxCell id="3Vs7PQKg-NsDBRzMTqkH-39" value="" style="group" parent="1" connectable="0" vertex="1">
                    <mxGeometry x="60" y="1360" width="50" height="55" as="geometry"/>
                </mxCell>
                <mxCell id="3Vs7PQKg-NsDBRzMTqkH-40" value="" style="group" parent="3Vs7PQKg-NsDBRzMTqkH-39" connectable="0" vertex="1">
                    <mxGeometry width="50" height="55" as="geometry"/>
                </mxCell>
                <mxCell id="3Vs7PQKg-NsDBRzMTqkH-41" value="" style="rounded=0;whiteSpace=wrap;html=1;" parent="3Vs7PQKg-NsDBRzMTqkH-40" vertex="1">
                    <mxGeometry width="50" height="55" as="geometry"/>
                </mxCell>
                <mxCell id="3Vs7PQKg-NsDBRzMTqkH-42" value="" style="endArrow=none;html=1;rounded=0;entryX=0;entryY=0;entryDx=0;entryDy=0;exitX=1;exitY=1;exitDx=0;exitDy=0;" parent="3Vs7PQKg-NsDBRzMTqkH-40" source="3Vs7PQKg-NsDBRzMTqkH-41" target="3Vs7PQKg-NsDBRzMTqkH-41" edge="1">
                    <mxGeometry width="50" height="50" relative="1" as="geometry">
                        <mxPoint x="350" y="282.5" as="sourcePoint"/>
                        <mxPoint x="400" y="232.5" as="targetPoint"/>
                    </mxGeometry>
                </mxCell>
                <mxCell id="3Vs7PQKg-NsDBRzMTqkH-43" value="" style="endArrow=none;html=1;rounded=0;exitX=0;exitY=1;exitDx=0;exitDy=0;entryX=1;entryY=0;entryDx=0;entryDy=0;" parent="3Vs7PQKg-NsDBRzMTqkH-40" source="3Vs7PQKg-NsDBRzMTqkH-41" target="3Vs7PQKg-NsDBRzMTqkH-41" edge="1">
                    <mxGeometry width="50" height="50" relative="1" as="geometry">
                        <mxPoint x="-60" y="42.5" as="sourcePoint"/>
                        <mxPoint x="-20" y="0.5" as="targetPoint"/>
                        <Array as="points"/>
                    </mxGeometry>
                </mxCell>
                <mxCell id="3Vs7PQKg-NsDBRzMTqkH-44" value="&lt;font style=&quot;font-size: 11px;&quot; color=&quot;#ffffff&quot;&gt;Copyright ©2022 Dunfermline Men's Shed, All Rights Reserved.&lt;/font&gt;" style="text;html=1;strokeColor=none;fillColor=none;align=center;verticalAlign=middle;whiteSpace=wrap;rounded=0;fontSize=17;" parent="1" vertex="1">
                    <mxGeometry x="80" y="1470" width="550" height="32.5" as="geometry"/>
                </mxCell>
                <mxCell id="3Vs7PQKg-NsDBRzMTqkH-45" value="&lt;font color=&quot;#ffffff&quot;&gt;| Privacy Notice | Terms &amp;amp; Conditions |&amp;nbsp;&lt;/font&gt;" style="text;html=1;strokeColor=none;fillColor=none;align=center;verticalAlign=middle;whiteSpace=wrap;rounded=0;" parent="1" vertex="1">
                    <mxGeometry x="150" y="1457.5" width="400" height="30" as="geometry"/>
                </mxCell>
                <mxCell id="3Vs7PQKg-NsDBRzMTqkH-46" value="&lt;p style=&quot;line-height: 30%;&quot;&gt;&lt;/p&gt;&lt;h1 style=&quot;line-height: 40%;&quot;&gt;&lt;span style=&quot;font-size: 12px; font-weight: 400;&quot;&gt;Dunfermline Men's Shed&amp;nbsp;&lt;/span&gt;&lt;/h1&gt;&lt;div style=&quot;line-height: 70%;&quot;&gt;&lt;span style=&quot;font-size: 12px; font-weight: 400;&quot;&gt;The Steadings, Pittencrieff Park&lt;/span&gt;&lt;/div&gt;&lt;div&gt;Dunfermline&lt;/div&gt;&lt;div style=&quot;line-height: 100%;&quot;&gt;&lt;span style=&quot;background-color: initial; font-size: 12px; font-weight: normal;&quot;&gt;KY12 8QH&lt;/span&gt;&lt;/div&gt;&lt;div style=&quot;line-height: 100%;&quot;&gt;&lt;br&gt;&lt;/div&gt;&lt;div style=&quot;line-height: 100%;&quot;&gt;01383 650355&lt;br&gt;&lt;/div&gt;&lt;p&gt;&lt;/p&gt;" style="text;html=1;strokeColor=none;fillColor=none;spacing=5;spacingTop=-20;whiteSpace=wrap;overflow=hidden;rounded=0;fontColor=#FFFFFF;" parent="1" vertex="1">
                    <mxGeometry x="110" y="1350" width="190" height="120" as="geometry"/>
                </mxCell>
                <mxCell id="nhyjUUG-AGmD9XvUWTc_-1" value="" style="group" parent="1" connectable="0" vertex="1">
                    <mxGeometry x="80" y="150" width="340" height="285" as="geometry"/>
                </mxCell>
                <mxCell id="nhyjUUG-AGmD9XvUWTc_-2" value="" style="group" parent="nhyjUUG-AGmD9XvUWTc_-1" connectable="0" vertex="1">
                    <mxGeometry width="340" height="285" as="geometry"/>
                </mxCell>
                <mxCell id="nhyjUUG-AGmD9XvUWTc_-3" value="" style="rounded=0;whiteSpace=wrap;html=1;" parent="nhyjUUG-AGmD9XvUWTc_-2" vertex="1">
                    <mxGeometry width="340" height="285" as="geometry"/>
                </mxCell>
                <mxCell id="nhyjUUG-AGmD9XvUWTc_-4" value="" style="endArrow=none;html=1;rounded=0;entryX=0;entryY=0;entryDx=0;entryDy=0;exitX=1;exitY=1;exitDx=0;exitDy=0;" parent="nhyjUUG-AGmD9XvUWTc_-2" source="nhyjUUG-AGmD9XvUWTc_-3" target="nhyjUUG-AGmD9XvUWTc_-3" edge="1">
                    <mxGeometry width="50" height="50" relative="1" as="geometry">
                        <mxPoint x="2380" y="1463.8636363636363" as="sourcePoint"/>
                        <mxPoint x="2720" y="1204.7727272727273" as="targetPoint"/>
                    </mxGeometry>
                </mxCell>
                <mxCell id="nhyjUUG-AGmD9XvUWTc_-5" value="" style="endArrow=none;html=1;rounded=0;exitX=0;exitY=1;exitDx=0;exitDy=0;entryX=1;entryY=0;entryDx=0;entryDy=0;" parent="nhyjUUG-AGmD9XvUWTc_-2" source="nhyjUUG-AGmD9XvUWTc_-3" target="nhyjUUG-AGmD9XvUWTc_-3" edge="1">
                    <mxGeometry width="50" height="50" relative="1" as="geometry">
                        <mxPoint x="-408" y="220.22727272727272" as="sourcePoint"/>
                        <mxPoint x="-136" y="2.590909090909091" as="targetPoint"/>
                        <Array as="points"/>
                    </mxGeometry>
                </mxCell>
                <mxCell id="nhyjUUG-AGmD9XvUWTc_-6" value="Product name" style="text;html=1;strokeColor=none;fillColor=none;align=center;verticalAlign=middle;whiteSpace=wrap;rounded=0;fontSize=18;fontColor=#000000;" parent="1" vertex="1">
                    <mxGeometry x="443" y="160" width="137" height="30" as="geometry"/>
                </mxCell>
                <mxCell id="nhyjUUG-AGmD9XvUWTc_-7" value="How to use information..." style="text;html=1;strokeColor=none;fillColor=none;align=center;verticalAlign=middle;whiteSpace=wrap;rounded=0;fontSize=18;fontColor=#000000;" parent="1" vertex="1">
                    <mxGeometry x="433" y="200" width="157" height="60" as="geometry"/>
                </mxCell>
                <mxCell id="nhyjUUG-AGmD9XvUWTc_-8" value="link to demonstration video/slideshow" style="text;html=1;strokeColor=none;fillColor=none;align=center;verticalAlign=middle;whiteSpace=wrap;rounded=0;fontSize=18;fontColor=#000000;" parent="1" vertex="1">
                    <mxGeometry x="443" y="262.5" width="137" height="60" as="geometry"/>
                </mxCell>
                <mxCell id="nhyjUUG-AGmD9XvUWTc_-9" value="&lt;font style=&quot;font-size: 22px;&quot;&gt;&lt;b&gt;Showcase&lt;/b&gt;&lt;/font&gt;" style="text;html=1;strokeColor=none;fillColor=none;align=center;verticalAlign=middle;whiteSpace=wrap;rounded=0;fontSize=18;fontColor=#000000;" parent="1" vertex="1">
                    <mxGeometry x="70" y="520" width="120" height="30" as="geometry"/>
                </mxCell>
                <mxCell id="nhyjUUG-AGmD9XvUWTc_-10" value="" style="rounded=0;whiteSpace=wrap;html=1;fontSize=22;fontColor=#000000;fillColor=#004AAD;strokeColor=none;" parent="1" vertex="1">
                    <mxGeometry x="50" y="460" width="630" height="30" as="geometry"/>
                </mxCell>
                <mxCell id="nhyjUUG-AGmD9XvUWTc_-11" value="" style="rounded=0;whiteSpace=wrap;html=1;fontSize=22;fontColor=#000000;fillColor=#004AAD;strokeColor=none;" parent="1" vertex="1">
                    <mxGeometry x="50" y="740" width="630" height="30" as="geometry"/>
                </mxCell>
                <mxCell id="4fzlyqgZsqnSi3ntRhIb-1" value="" style="group" parent="1" connectable="0" vertex="1">
                    <mxGeometry x="120" y="560" width="150" height="140" as="geometry"/>
                </mxCell>
                <mxCell id="4fzlyqgZsqnSi3ntRhIb-2" value="" style="group" parent="4fzlyqgZsqnSi3ntRhIb-1" connectable="0" vertex="1">
                    <mxGeometry width="150" height="140" as="geometry"/>
                </mxCell>
                <mxCell id="4fzlyqgZsqnSi3ntRhIb-3" value="" style="rounded=0;whiteSpace=wrap;html=1;" parent="4fzlyqgZsqnSi3ntRhIb-2" vertex="1">
                    <mxGeometry x="10" width="150" height="140" as="geometry"/>
                </mxCell>
                <mxCell id="4fzlyqgZsqnSi3ntRhIb-4" value="" style="endArrow=none;html=1;rounded=0;entryX=0;entryY=0;entryDx=0;entryDy=0;exitX=1;exitY=1;exitDx=0;exitDy=0;" parent="4fzlyqgZsqnSi3ntRhIb-2" source="4fzlyqgZsqnSi3ntRhIb-3" target="4fzlyqgZsqnSi3ntRhIb-3" edge="1">
                    <mxGeometry width="50" height="50" relative="1" as="geometry">
                        <mxPoint x="1050" y="719.0909090909091" as="sourcePoint"/>
                        <mxPoint x="1200" y="591.8181818181818" as="targetPoint"/>
                    </mxGeometry>
                </mxCell>
                <mxCell id="4fzlyqgZsqnSi3ntRhIb-5" value="" style="endArrow=none;html=1;rounded=0;exitX=0;exitY=1;exitDx=0;exitDy=0;entryX=1;entryY=0;entryDx=0;entryDy=0;" parent="4fzlyqgZsqnSi3ntRhIb-2" source="4fzlyqgZsqnSi3ntRhIb-3" target="4fzlyqgZsqnSi3ntRhIb-3" edge="1">
                    <mxGeometry width="50" height="50" relative="1" as="geometry">
                        <mxPoint x="-180" y="108.18181818181819" as="sourcePoint"/>
                        <mxPoint x="-60" y="1.2727272727272727" as="targetPoint"/>
                        <Array as="points"/>
                    </mxGeometry>
                </mxCell>
                <mxCell id="DIdA2M_zk1nYN98rbllV-1" value="" style="html=1;shadow=0;dashed=0;align=center;verticalAlign=middle;shape=mxgraph.arrows2.arrow;dy=0.6;dx=40;flipH=1;notch=0;fontSize=17;" parent="4fzlyqgZsqnSi3ntRhIb-2" vertex="1">
                    <mxGeometry x="-40" y="50" width="70" height="40" as="geometry"/>
                </mxCell>
                <mxCell id="4fzlyqgZsqnSi3ntRhIb-6" value="" style="group" parent="1" connectable="0" vertex="1">
                    <mxGeometry x="300" y="560" width="150" height="140" as="geometry"/>
                </mxCell>
                <mxCell id="4fzlyqgZsqnSi3ntRhIb-7" value="" style="group" parent="4fzlyqgZsqnSi3ntRhIb-6" connectable="0" vertex="1">
                    <mxGeometry width="150" height="140" as="geometry"/>
                </mxCell>
                <mxCell id="4fzlyqgZsqnSi3ntRhIb-8" value="" style="rounded=0;whiteSpace=wrap;html=1;" parent="4fzlyqgZsqnSi3ntRhIb-7" vertex="1">
                    <mxGeometry width="150" height="140" as="geometry"/>
                </mxCell>
                <mxCell id="4fzlyqgZsqnSi3ntRhIb-9" value="" style="endArrow=none;html=1;rounded=0;entryX=0;entryY=0;entryDx=0;entryDy=0;exitX=1;exitY=1;exitDx=0;exitDy=0;" parent="4fzlyqgZsqnSi3ntRhIb-7" source="4fzlyqgZsqnSi3ntRhIb-8" target="4fzlyqgZsqnSi3ntRhIb-8" edge="1">
                    <mxGeometry width="50" height="50" relative="1" as="geometry">
                        <mxPoint x="1050" y="719.0909090909091" as="sourcePoint"/>
                        <mxPoint x="1200" y="591.8181818181818" as="targetPoint"/>
                    </mxGeometry>
                </mxCell>
                <mxCell id="4fzlyqgZsqnSi3ntRhIb-10" value="" style="endArrow=none;html=1;rounded=0;exitX=0;exitY=1;exitDx=0;exitDy=0;entryX=1;entryY=0;entryDx=0;entryDy=0;" parent="4fzlyqgZsqnSi3ntRhIb-7" source="4fzlyqgZsqnSi3ntRhIb-8" target="4fzlyqgZsqnSi3ntRhIb-8" edge="1">
                    <mxGeometry width="50" height="50" relative="1" as="geometry">
                        <mxPoint x="-180" y="108.18181818181819" as="sourcePoint"/>
                        <mxPoint x="-60" y="1.2727272727272727" as="targetPoint"/>
                        <Array as="points"/>
                    </mxGeometry>
                </mxCell>
                <mxCell id="4fzlyqgZsqnSi3ntRhIb-11" value="" style="group" parent="1" connectable="0" vertex="1">
                    <mxGeometry x="470" y="560" width="150" height="140" as="geometry"/>
                </mxCell>
                <mxCell id="4fzlyqgZsqnSi3ntRhIb-12" value="" style="group" parent="4fzlyqgZsqnSi3ntRhIb-11" connectable="0" vertex="1">
                    <mxGeometry width="150" height="140" as="geometry"/>
                </mxCell>
                <mxCell id="4fzlyqgZsqnSi3ntRhIb-13" value="" style="rounded=0;whiteSpace=wrap;html=1;" parent="4fzlyqgZsqnSi3ntRhIb-12" vertex="1">
                    <mxGeometry width="150" height="140" as="geometry"/>
                </mxCell>
                <mxCell id="4fzlyqgZsqnSi3ntRhIb-14" value="" style="endArrow=none;html=1;rounded=0;entryX=0;entryY=0;entryDx=0;entryDy=0;exitX=1;exitY=1;exitDx=0;exitDy=0;" parent="4fzlyqgZsqnSi3ntRhIb-12" source="4fzlyqgZsqnSi3ntRhIb-13" target="4fzlyqgZsqnSi3ntRhIb-13" edge="1">
                    <mxGeometry width="50" height="50" relative="1" as="geometry">
                        <mxPoint x="1050" y="719.0909090909091" as="sourcePoint"/>
                        <mxPoint x="1200" y="591.8181818181818" as="targetPoint"/>
                    </mxGeometry>
                </mxCell>
                <mxCell id="4fzlyqgZsqnSi3ntRhIb-15" value="" style="endArrow=none;html=1;rounded=0;exitX=0;exitY=1;exitDx=0;exitDy=0;entryX=1;entryY=0;entryDx=0;entryDy=0;" parent="4fzlyqgZsqnSi3ntRhIb-12" source="4fzlyqgZsqnSi3ntRhIb-13" target="4fzlyqgZsqnSi3ntRhIb-13" edge="1">
                    <mxGeometry width="50" height="50" relative="1" as="geometry">
                        <mxPoint x="-180" y="108.18181818181819" as="sourcePoint"/>
                        <mxPoint x="-60" y="1.2727272727272727" as="targetPoint"/>
                        <Array as="points"/>
                    </mxGeometry>
                </mxCell>
                <mxCell id="DIdA2M_zk1nYN98rbllV-2" value="" style="html=1;shadow=0;dashed=0;align=center;verticalAlign=middle;shape=mxgraph.arrows2.arrow;dy=0.6;dx=40;flipH=1;notch=0;fontSize=17;direction=west;" parent="1" vertex="1">
                    <mxGeometry x="600" y="610" width="70" height="40" as="geometry"/>
                </mxCell>
                <mxCell id="3Na2KGHdQ7Ne8E6W7dj8-8" value="" style="rounded=0;whiteSpace=wrap;html=1;" parent="1" vertex="1">
                    <mxGeometry x="80" y="785" width="580" height="495" as="geometry"/>
                </mxCell>
                <mxCell id="3Na2KGHdQ7Ne8E6W7dj8-3" value="" style="group" parent="1" connectable="0" vertex="1">
                    <mxGeometry x="100" y="810" width="77.5" height="70" as="geometry"/>
                </mxCell>
                <mxCell id="3Na2KGHdQ7Ne8E6W7dj8-4" value="" style="group" parent="3Na2KGHdQ7Ne8E6W7dj8-3" connectable="0" vertex="1">
                    <mxGeometry width="77.50000000000001" height="70" as="geometry"/>
                </mxCell>
                <mxCell id="3Na2KGHdQ7Ne8E6W7dj8-5" value="" style="rounded=0;whiteSpace=wrap;html=1;" parent="3Na2KGHdQ7Ne8E6W7dj8-4" vertex="1">
                    <mxGeometry width="77.50000000000001" height="70" as="geometry"/>
                </mxCell>
                <mxCell id="3Na2KGHdQ7Ne8E6W7dj8-6" value="" style="endArrow=none;html=1;rounded=0;entryX=0;entryY=0;entryDx=0;entryDy=0;exitX=1;exitY=1;exitDx=0;exitDy=0;" parent="3Na2KGHdQ7Ne8E6W7dj8-4" source="3Na2KGHdQ7Ne8E6W7dj8-5" target="3Na2KGHdQ7Ne8E6W7dj8-5" edge="1">
                    <mxGeometry width="50" height="50" relative="1" as="geometry">
                        <mxPoint x="542.5000000000001" y="359.5454545454545" as="sourcePoint"/>
                        <mxPoint x="620.0000000000001" y="295.9090909090909" as="targetPoint"/>
                    </mxGeometry>
                </mxCell>
                <mxCell id="3Na2KGHdQ7Ne8E6W7dj8-7" value="" style="endArrow=none;html=1;rounded=0;exitX=0;exitY=1;exitDx=0;exitDy=0;entryX=1;entryY=0;entryDx=0;entryDy=0;" parent="3Na2KGHdQ7Ne8E6W7dj8-4" source="3Na2KGHdQ7Ne8E6W7dj8-5" target="3Na2KGHdQ7Ne8E6W7dj8-5" edge="1">
                    <mxGeometry width="50" height="50" relative="1" as="geometry">
                        <mxPoint x="-93.00000000000001" y="54.090909090909086" as="sourcePoint"/>
                        <mxPoint x="-31.000000000000004" y="0.6363636363636364" as="targetPoint"/>
                        <Array as="points"/>
                    </mxGeometry>
                </mxCell>
                <mxCell id="NM9yCMROQYtIlSV54g8Z-1" value="Product Name" style="text;html=1;strokeColor=none;fillColor=none;align=center;verticalAlign=middle;whiteSpace=wrap;rounded=0;" parent="1" vertex="1">
                    <mxGeometry x="210" y="830" width="60" height="30" as="geometry"/>
                </mxCell>
                <mxCell id="NM9yCMROQYtIlSV54g8Z-2" value="" style="endArrow=none;html=1;rounded=0;entryX=0.5;entryY=0;entryDx=0;entryDy=0;exitX=0.5;exitY=1;exitDx=0;exitDy=0;" parent="1" source="3Na2KGHdQ7Ne8E6W7dj8-8" target="3Na2KGHdQ7Ne8E6W7dj8-8" edge="1">
                    <mxGeometry width="50" height="50" relative="1" as="geometry">
                        <mxPoint x="700" y="950" as="sourcePoint"/>
                        <mxPoint x="750" y="900" as="targetPoint"/>
                    </mxGeometry>
                </mxCell>
                <mxCell id="NM9yCMROQYtIlSV54g8Z-8" value="" style="group" parent="1" connectable="0" vertex="1">
                    <mxGeometry x="100" y="890" width="77.5" height="70" as="geometry"/>
                </mxCell>
                <mxCell id="NM9yCMROQYtIlSV54g8Z-9" value="" style="group" parent="NM9yCMROQYtIlSV54g8Z-8" connectable="0" vertex="1">
                    <mxGeometry width="77.50000000000001" height="70" as="geometry"/>
                </mxCell>
                <mxCell id="NM9yCMROQYtIlSV54g8Z-10" value="" style="rounded=0;whiteSpace=wrap;html=1;" parent="NM9yCMROQYtIlSV54g8Z-9" vertex="1">
                    <mxGeometry width="77.50000000000001" height="70" as="geometry"/>
                </mxCell>
                <mxCell id="NM9yCMROQYtIlSV54g8Z-11" value="" style="endArrow=none;html=1;rounded=0;entryX=0;entryY=0;entryDx=0;entryDy=0;exitX=1;exitY=1;exitDx=0;exitDy=0;" parent="NM9yCMROQYtIlSV54g8Z-9" source="NM9yCMROQYtIlSV54g8Z-10" target="NM9yCMROQYtIlSV54g8Z-10" edge="1">
                    <mxGeometry width="50" height="50" relative="1" as="geometry">
                        <mxPoint x="542.5000000000001" y="359.5454545454545" as="sourcePoint"/>
                        <mxPoint x="620.0000000000001" y="295.9090909090909" as="targetPoint"/>
                    </mxGeometry>
                </mxCell>
                <mxCell id="NM9yCMROQYtIlSV54g8Z-12" value="" style="endArrow=none;html=1;rounded=0;exitX=0;exitY=1;exitDx=0;exitDy=0;entryX=1;entryY=0;entryDx=0;entryDy=0;" parent="NM9yCMROQYtIlSV54g8Z-9" source="NM9yCMROQYtIlSV54g8Z-10" target="NM9yCMROQYtIlSV54g8Z-10" edge="1">
                    <mxGeometry width="50" height="50" relative="1" as="geometry">
                        <mxPoint x="-93.00000000000001" y="54.090909090909086" as="sourcePoint"/>
                        <mxPoint x="-31.000000000000004" y="0.6363636363636364" as="targetPoint"/>
                        <Array as="points"/>
                    </mxGeometry>
                </mxCell>
                <mxCell id="NM9yCMROQYtIlSV54g8Z-13" value="Product Name" style="text;html=1;strokeColor=none;fillColor=none;align=center;verticalAlign=middle;whiteSpace=wrap;rounded=0;" parent="1" vertex="1">
                    <mxGeometry x="210" y="910" width="60" height="30" as="geometry"/>
                </mxCell>
                <mxCell id="NM9yCMROQYtIlSV54g8Z-14" value="" style="group" parent="1" connectable="0" vertex="1">
                    <mxGeometry x="100" y="890" width="77.5" height="70" as="geometry"/>
                </mxCell>
                <mxCell id="NM9yCMROQYtIlSV54g8Z-15" value="" style="group" parent="NM9yCMROQYtIlSV54g8Z-14" connectable="0" vertex="1">
                    <mxGeometry width="77.50000000000001" height="70" as="geometry"/>
                </mxCell>
                <mxCell id="NM9yCMROQYtIlSV54g8Z-16" value="" style="rounded=0;whiteSpace=wrap;html=1;" parent="NM9yCMROQYtIlSV54g8Z-15" vertex="1">
                    <mxGeometry width="77.50000000000001" height="70" as="geometry"/>
                </mxCell>
                <mxCell id="NM9yCMROQYtIlSV54g8Z-17" value="" style="endArrow=none;html=1;rounded=0;entryX=0;entryY=0;entryDx=0;entryDy=0;exitX=1;exitY=1;exitDx=0;exitDy=0;" parent="NM9yCMROQYtIlSV54g8Z-15" source="NM9yCMROQYtIlSV54g8Z-16" target="NM9yCMROQYtIlSV54g8Z-16" edge="1">
                    <mxGeometry width="50" height="50" relative="1" as="geometry">
                        <mxPoint x="542.5000000000001" y="359.5454545454545" as="sourcePoint"/>
                        <mxPoint x="620.0000000000001" y="295.9090909090909" as="targetPoint"/>
                    </mxGeometry>
                </mxCell>
                <mxCell id="NM9yCMROQYtIlSV54g8Z-18" value="" style="endArrow=none;html=1;rounded=0;exitX=0;exitY=1;exitDx=0;exitDy=0;entryX=1;entryY=0;entryDx=0;entryDy=0;" parent="NM9yCMROQYtIlSV54g8Z-15" source="NM9yCMROQYtIlSV54g8Z-16" target="NM9yCMROQYtIlSV54g8Z-16" edge="1">
                    <mxGeometry width="50" height="50" relative="1" as="geometry">
                        <mxPoint x="-93.00000000000001" y="54.090909090909086" as="sourcePoint"/>
                        <mxPoint x="-31.000000000000004" y="0.6363636363636364" as="targetPoint"/>
                        <Array as="points"/>
                    </mxGeometry>
                </mxCell>
                <mxCell id="NM9yCMROQYtIlSV54g8Z-19" value="Product Name" style="text;html=1;strokeColor=none;fillColor=none;align=center;verticalAlign=middle;whiteSpace=wrap;rounded=0;" parent="1" vertex="1">
                    <mxGeometry x="210" y="910" width="60" height="30" as="geometry"/>
                </mxCell>
                <mxCell id="NM9yCMROQYtIlSV54g8Z-20" value="" style="group" parent="1" connectable="0" vertex="1">
                    <mxGeometry x="100" y="970" width="77.5" height="70" as="geometry"/>
                </mxCell>
                <mxCell id="NM9yCMROQYtIlSV54g8Z-21" value="" style="group" parent="NM9yCMROQYtIlSV54g8Z-20" connectable="0" vertex="1">
                    <mxGeometry width="77.50000000000001" height="70" as="geometry"/>
                </mxCell>
                <mxCell id="NM9yCMROQYtIlSV54g8Z-22" value="" style="rounded=0;whiteSpace=wrap;html=1;" parent="NM9yCMROQYtIlSV54g8Z-21" vertex="1">
                    <mxGeometry width="77.50000000000001" height="70" as="geometry"/>
                </mxCell>
                <mxCell id="NM9yCMROQYtIlSV54g8Z-23" value="" style="endArrow=none;html=1;rounded=0;entryX=0;entryY=0;entryDx=0;entryDy=0;exitX=1;exitY=1;exitDx=0;exitDy=0;" parent="NM9yCMROQYtIlSV54g8Z-21" source="NM9yCMROQYtIlSV54g8Z-22" target="NM9yCMROQYtIlSV54g8Z-22" edge="1">
                    <mxGeometry width="50" height="50" relative="1" as="geometry">
                        <mxPoint x="542.5000000000001" y="359.5454545454545" as="sourcePoint"/>
                        <mxPoint x="620.0000000000001" y="295.9090909090909" as="targetPoint"/>
                    </mxGeometry>
                </mxCell>
                <mxCell id="NM9yCMROQYtIlSV54g8Z-24" value="" style="endArrow=none;html=1;rounded=0;exitX=0;exitY=1;exitDx=0;exitDy=0;entryX=1;entryY=0;entryDx=0;entryDy=0;" parent="NM9yCMROQYtIlSV54g8Z-21" source="NM9yCMROQYtIlSV54g8Z-22" target="NM9yCMROQYtIlSV54g8Z-22" edge="1">
                    <mxGeometry width="50" height="50" relative="1" as="geometry">
                        <mxPoint x="-93.00000000000001" y="54.090909090909086" as="sourcePoint"/>
                        <mxPoint x="-31.000000000000004" y="0.6363636363636364" as="targetPoint"/>
                        <Array as="points"/>
                    </mxGeometry>
                </mxCell>
                <mxCell id="NM9yCMROQYtIlSV54g8Z-25" value="Product Name" style="text;html=1;strokeColor=none;fillColor=none;align=center;verticalAlign=middle;whiteSpace=wrap;rounded=0;" parent="1" vertex="1">
                    <mxGeometry x="210" y="990" width="60" height="30" as="geometry"/>
                </mxCell>
                <mxCell id="NM9yCMROQYtIlSV54g8Z-26" value="" style="group" parent="1" connectable="0" vertex="1">
                    <mxGeometry x="100" y="1050" width="77.5" height="70" as="geometry"/>
                </mxCell>
                <mxCell id="NM9yCMROQYtIlSV54g8Z-27" value="" style="group" parent="NM9yCMROQYtIlSV54g8Z-26" connectable="0" vertex="1">
                    <mxGeometry width="77.50000000000001" height="70" as="geometry"/>
                </mxCell>
                <mxCell id="NM9yCMROQYtIlSV54g8Z-28" value="" style="rounded=0;whiteSpace=wrap;html=1;" parent="NM9yCMROQYtIlSV54g8Z-27" vertex="1">
                    <mxGeometry width="77.50000000000001" height="70" as="geometry"/>
                </mxCell>
                <mxCell id="NM9yCMROQYtIlSV54g8Z-29" value="" style="endArrow=none;html=1;rounded=0;entryX=0;entryY=0;entryDx=0;entryDy=0;exitX=1;exitY=1;exitDx=0;exitDy=0;" parent="NM9yCMROQYtIlSV54g8Z-27" source="NM9yCMROQYtIlSV54g8Z-28" target="NM9yCMROQYtIlSV54g8Z-28" edge="1">
                    <mxGeometry width="50" height="50" relative="1" as="geometry">
                        <mxPoint x="542.5000000000001" y="359.5454545454545" as="sourcePoint"/>
                        <mxPoint x="620.0000000000001" y="295.9090909090909" as="targetPoint"/>
                    </mxGeometry>
                </mxCell>
                <mxCell id="NM9yCMROQYtIlSV54g8Z-30" value="" style="endArrow=none;html=1;rounded=0;exitX=0;exitY=1;exitDx=0;exitDy=0;entryX=1;entryY=0;entryDx=0;entryDy=0;" parent="NM9yCMROQYtIlSV54g8Z-27" source="NM9yCMROQYtIlSV54g8Z-28" target="NM9yCMROQYtIlSV54g8Z-28" edge="1">
                    <mxGeometry width="50" height="50" relative="1" as="geometry">
                        <mxPoint x="-93.00000000000001" y="54.090909090909086" as="sourcePoint"/>
                        <mxPoint x="-31.000000000000004" y="0.6363636363636364" as="targetPoint"/>
                        <Array as="points"/>
                    </mxGeometry>
                </mxCell>
                <mxCell id="NM9yCMROQYtIlSV54g8Z-31" value="Product Name" style="text;html=1;strokeColor=none;fillColor=none;align=center;verticalAlign=middle;whiteSpace=wrap;rounded=0;" parent="1" vertex="1">
                    <mxGeometry x="210" y="1070" width="60" height="30" as="geometry"/>
                </mxCell>
                <mxCell id="NM9yCMROQYtIlSV54g8Z-32" value="" style="group" parent="1" connectable="0" vertex="1">
                    <mxGeometry x="410" y="810" width="77.5" height="70" as="geometry"/>
                </mxCell>
                <mxCell id="NM9yCMROQYtIlSV54g8Z-33" value="" style="group" parent="NM9yCMROQYtIlSV54g8Z-32" connectable="0" vertex="1">
                    <mxGeometry width="77.50000000000001" height="70" as="geometry"/>
                </mxCell>
                <mxCell id="NM9yCMROQYtIlSV54g8Z-34" value="" style="rounded=0;whiteSpace=wrap;html=1;" parent="NM9yCMROQYtIlSV54g8Z-33" vertex="1">
                    <mxGeometry width="77.50000000000001" height="70" as="geometry"/>
                </mxCell>
                <mxCell id="NM9yCMROQYtIlSV54g8Z-35" value="" style="endArrow=none;html=1;rounded=0;entryX=0;entryY=0;entryDx=0;entryDy=0;exitX=1;exitY=1;exitDx=0;exitDy=0;" parent="NM9yCMROQYtIlSV54g8Z-33" source="NM9yCMROQYtIlSV54g8Z-34" target="NM9yCMROQYtIlSV54g8Z-34" edge="1">
                    <mxGeometry width="50" height="50" relative="1" as="geometry">
                        <mxPoint x="542.5000000000001" y="359.5454545454545" as="sourcePoint"/>
                        <mxPoint x="620.0000000000001" y="295.9090909090909" as="targetPoint"/>
                    </mxGeometry>
                </mxCell>
                <mxCell id="NM9yCMROQYtIlSV54g8Z-36" value="" style="endArrow=none;html=1;rounded=0;exitX=0;exitY=1;exitDx=0;exitDy=0;entryX=1;entryY=0;entryDx=0;entryDy=0;" parent="NM9yCMROQYtIlSV54g8Z-33" source="NM9yCMROQYtIlSV54g8Z-34" target="NM9yCMROQYtIlSV54g8Z-34" edge="1">
                    <mxGeometry width="50" height="50" relative="1" as="geometry">
                        <mxPoint x="-93.00000000000001" y="54.090909090909086" as="sourcePoint"/>
                        <mxPoint x="-31.000000000000004" y="0.6363636363636364" as="targetPoint"/>
                        <Array as="points"/>
                    </mxGeometry>
                </mxCell>
                <mxCell id="NM9yCMROQYtIlSV54g8Z-37" value="Product Name" style="text;html=1;strokeColor=none;fillColor=none;align=center;verticalAlign=middle;whiteSpace=wrap;rounded=0;" parent="1" vertex="1">
                    <mxGeometry x="520" y="830" width="60" height="30" as="geometry"/>
                </mxCell>
                <mxCell id="NM9yCMROQYtIlSV54g8Z-38" value="" style="group" parent="1" connectable="0" vertex="1">
                    <mxGeometry x="410" y="890" width="77.5" height="70" as="geometry"/>
                </mxCell>
                <mxCell id="NM9yCMROQYtIlSV54g8Z-39" value="" style="group" parent="NM9yCMROQYtIlSV54g8Z-38" connectable="0" vertex="1">
                    <mxGeometry width="77.50000000000001" height="70" as="geometry"/>
                </mxCell>
                <mxCell id="NM9yCMROQYtIlSV54g8Z-40" value="" style="rounded=0;whiteSpace=wrap;html=1;" parent="NM9yCMROQYtIlSV54g8Z-39" vertex="1">
                    <mxGeometry width="77.50000000000001" height="70" as="geometry"/>
                </mxCell>
                <mxCell id="NM9yCMROQYtIlSV54g8Z-41" value="" style="endArrow=none;html=1;rounded=0;entryX=0;entryY=0;entryDx=0;entryDy=0;exitX=1;exitY=1;exitDx=0;exitDy=0;" parent="NM9yCMROQYtIlSV54g8Z-39" source="NM9yCMROQYtIlSV54g8Z-40" target="NM9yCMROQYtIlSV54g8Z-40" edge="1">
                    <mxGeometry width="50" height="50" relative="1" as="geometry">
                        <mxPoint x="542.5000000000001" y="359.5454545454545" as="sourcePoint"/>
                        <mxPoint x="620.0000000000001" y="295.9090909090909" as="targetPoint"/>
                    </mxGeometry>
                </mxCell>
                <mxCell id="NM9yCMROQYtIlSV54g8Z-42" value="" style="endArrow=none;html=1;rounded=0;exitX=0;exitY=1;exitDx=0;exitDy=0;entryX=1;entryY=0;entryDx=0;entryDy=0;" parent="NM9yCMROQYtIlSV54g8Z-39" source="NM9yCMROQYtIlSV54g8Z-40" target="NM9yCMROQYtIlSV54g8Z-40" edge="1">
                    <mxGeometry width="50" height="50" relative="1" as="geometry">
                        <mxPoint x="-93.00000000000001" y="54.090909090909086" as="sourcePoint"/>
                        <mxPoint x="-31.000000000000004" y="0.6363636363636364" as="targetPoint"/>
                        <Array as="points"/>
                    </mxGeometry>
                </mxCell>
                <mxCell id="NM9yCMROQYtIlSV54g8Z-43" value="Product Name" style="text;html=1;strokeColor=none;fillColor=none;align=center;verticalAlign=middle;whiteSpace=wrap;rounded=0;" parent="1" vertex="1">
                    <mxGeometry x="520" y="910" width="60" height="30" as="geometry"/>
                </mxCell>
                <mxCell id="NM9yCMROQYtIlSV54g8Z-44" value="" style="group" parent="1" connectable="0" vertex="1">
                    <mxGeometry x="410" y="970" width="77.5" height="70" as="geometry"/>
                </mxCell>
                <mxCell id="NM9yCMROQYtIlSV54g8Z-45" value="" style="group" parent="NM9yCMROQYtIlSV54g8Z-44" connectable="0" vertex="1">
                    <mxGeometry width="77.50000000000001" height="70" as="geometry"/>
                </mxCell>
                <mxCell id="NM9yCMROQYtIlSV54g8Z-46" value="" style="rounded=0;whiteSpace=wrap;html=1;" parent="NM9yCMROQYtIlSV54g8Z-45" vertex="1">
                    <mxGeometry width="77.50000000000001" height="70" as="geometry"/>
                </mxCell>
                <mxCell id="NM9yCMROQYtIlSV54g8Z-47" value="" style="endArrow=none;html=1;rounded=0;entryX=0;entryY=0;entryDx=0;entryDy=0;exitX=1;exitY=1;exitDx=0;exitDy=0;" parent="NM9yCMROQYtIlSV54g8Z-45" source="NM9yCMROQYtIlSV54g8Z-46" target="NM9yCMROQYtIlSV54g8Z-46" edge="1">
                    <mxGeometry width="50" height="50" relative="1" as="geometry">
                        <mxPoint x="542.5000000000001" y="359.5454545454545" as="sourcePoint"/>
                        <mxPoint x="620.0000000000001" y="295.9090909090909" as="targetPoint"/>
                    </mxGeometry>
                </mxCell>
                <mxCell id="NM9yCMROQYtIlSV54g8Z-48" value="" style="endArrow=none;html=1;rounded=0;exitX=0;exitY=1;exitDx=0;exitDy=0;entryX=1;entryY=0;entryDx=0;entryDy=0;" parent="NM9yCMROQYtIlSV54g8Z-45" source="NM9yCMROQYtIlSV54g8Z-46" target="NM9yCMROQYtIlSV54g8Z-46" edge="1">
                    <mxGeometry width="50" height="50" relative="1" as="geometry">
                        <mxPoint x="-93.00000000000001" y="54.090909090909086" as="sourcePoint"/>
                        <mxPoint x="-31.000000000000004" y="0.6363636363636364" as="targetPoint"/>
                        <Array as="points"/>
                    </mxGeometry>
                </mxCell>
                <mxCell id="NM9yCMROQYtIlSV54g8Z-49" value="Product Name" style="text;html=1;strokeColor=none;fillColor=none;align=center;verticalAlign=middle;whiteSpace=wrap;rounded=0;" parent="1" vertex="1">
                    <mxGeometry x="520" y="990" width="60" height="30" as="geometry"/>
                </mxCell>
                <mxCell id="NM9yCMROQYtIlSV54g8Z-50" value="" style="group" parent="1" connectable="0" vertex="1">
                    <mxGeometry x="410" y="1050" width="77.5" height="70" as="geometry"/>
                </mxCell>
                <mxCell id="NM9yCMROQYtIlSV54g8Z-51" value="" style="group" parent="NM9yCMROQYtIlSV54g8Z-50" connectable="0" vertex="1">
                    <mxGeometry width="77.50000000000001" height="70" as="geometry"/>
                </mxCell>
                <mxCell id="NM9yCMROQYtIlSV54g8Z-52" value="" style="rounded=0;whiteSpace=wrap;html=1;" parent="NM9yCMROQYtIlSV54g8Z-51" vertex="1">
                    <mxGeometry width="77.50000000000001" height="70" as="geometry"/>
                </mxCell>
                <mxCell id="NM9yCMROQYtIlSV54g8Z-53" value="" style="endArrow=none;html=1;rounded=0;entryX=0;entryY=0;entryDx=0;entryDy=0;exitX=1;exitY=1;exitDx=0;exitDy=0;" parent="NM9yCMROQYtIlSV54g8Z-51" source="NM9yCMROQYtIlSV54g8Z-52" target="NM9yCMROQYtIlSV54g8Z-52" edge="1">
                    <mxGeometry width="50" height="50" relative="1" as="geometry">
                        <mxPoint x="542.5000000000001" y="359.5454545454545" as="sourcePoint"/>
                        <mxPoint x="620.0000000000001" y="295.9090909090909" as="targetPoint"/>
                    </mxGeometry>
                </mxCell>
                <mxCell id="NM9yCMROQYtIlSV54g8Z-54" value="" style="endArrow=none;html=1;rounded=0;exitX=0;exitY=1;exitDx=0;exitDy=0;entryX=1;entryY=0;entryDx=0;entryDy=0;" parent="NM9yCMROQYtIlSV54g8Z-51" source="NM9yCMROQYtIlSV54g8Z-52" target="NM9yCMROQYtIlSV54g8Z-52" edge="1">
                    <mxGeometry width="50" height="50" relative="1" as="geometry">
                        <mxPoint x="-93.00000000000001" y="54.090909090909086" as="sourcePoint"/>
                        <mxPoint x="-31.000000000000004" y="0.6363636363636364" as="targetPoint"/>
                        <Array as="points"/>
                    </mxGeometry>
                </mxCell>
                <mxCell id="NM9yCMROQYtIlSV54g8Z-55" value="Product Name" style="text;html=1;strokeColor=none;fillColor=none;align=center;verticalAlign=middle;whiteSpace=wrap;rounded=0;" parent="1" vertex="1">
                    <mxGeometry x="520" y="1070" width="60" height="30" as="geometry"/>
                </mxCell>
                <mxCell id="NM9yCMROQYtIlSV54g8Z-57" value="" style="endArrow=classic;html=1;rounded=0;" parent="1" edge="1">
                    <mxGeometry width="50" height="50" relative="1" as="geometry">
                        <mxPoint x="511.08000000000004" y="1180" as="sourcePoint"/>
                        <mxPoint x="511.08000000000004" y="1220" as="targetPoint"/>
                    </mxGeometry>
                </mxCell>
                <mxCell id="NM9yCMROQYtIlSV54g8Z-58" value="" style="endArrow=classic;html=1;rounded=0;" parent="1" edge="1">
                    <mxGeometry width="50" height="50" relative="1" as="geometry">
                        <mxPoint x="189.99999999999994" y="1180" as="sourcePoint"/>
                        <mxPoint x="189.99999999999994" y="1220" as="targetPoint"/>
                    </mxGeometry>
                </mxCell>
            </root>
        </mxGraphModel>
    </diagram>
    <diagram id="YQurE66w06EbiRdHxMxs" name="Support">
        <mxGraphModel dx="794" dy="452" grid="1" gridSize="10" guides="1" tooltips="1" connect="1" arrows="1" fold="1" page="1" pageScale="1" pageWidth="850" pageHeight="1100" math="0" shadow="0">
            <root>
                <mxCell id="0"/>
                <mxCell id="1" parent="0"/>
                <mxCell id="6GG8XrTIYS3d066kc0xq-1" value="" style="whiteSpace=wrap;html=1;strokeWidth=1;" parent="1" vertex="1">
                    <mxGeometry x="50" y="30" width="630" height="1070" as="geometry"/>
                </mxCell>
                <mxCell id="6GG8XrTIYS3d066kc0xq-2" value="" style="rounded=0;whiteSpace=wrap;html=1;fillColor=#004AAD;strokeColor=none;" parent="1" vertex="1">
                    <mxGeometry x="50" y="30" width="630" height="20" as="geometry"/>
                </mxCell>
                <mxCell id="6GG8XrTIYS3d066kc0xq-3" value="" style="group" parent="1" connectable="0" vertex="1">
                    <mxGeometry x="80" y="60" width="50" height="55" as="geometry"/>
                </mxCell>
                <mxCell id="6GG8XrTIYS3d066kc0xq-4" value="" style="group" parent="6GG8XrTIYS3d066kc0xq-3" connectable="0" vertex="1">
                    <mxGeometry width="50" height="55" as="geometry"/>
                </mxCell>
                <mxCell id="6GG8XrTIYS3d066kc0xq-5" value="" style="rounded=0;whiteSpace=wrap;html=1;" parent="6GG8XrTIYS3d066kc0xq-4" vertex="1">
                    <mxGeometry width="50" height="55" as="geometry"/>
                </mxCell>
                <mxCell id="6GG8XrTIYS3d066kc0xq-6" value="" style="endArrow=none;html=1;rounded=0;entryX=0;entryY=0;entryDx=0;entryDy=0;exitX=1;exitY=1;exitDx=0;exitDy=0;" parent="6GG8XrTIYS3d066kc0xq-4" source="6GG8XrTIYS3d066kc0xq-5" target="6GG8XrTIYS3d066kc0xq-5" edge="1">
                    <mxGeometry width="50" height="50" relative="1" as="geometry">
                        <mxPoint x="350" y="282.5" as="sourcePoint"/>
                        <mxPoint x="400" y="232.5" as="targetPoint"/>
                    </mxGeometry>
                </mxCell>
                <mxCell id="6GG8XrTIYS3d066kc0xq-7" value="" style="endArrow=none;html=1;rounded=0;exitX=0;exitY=1;exitDx=0;exitDy=0;entryX=1;entryY=0;entryDx=0;entryDy=0;" parent="6GG8XrTIYS3d066kc0xq-4" source="6GG8XrTIYS3d066kc0xq-5" target="6GG8XrTIYS3d066kc0xq-5" edge="1">
                    <mxGeometry width="50" height="50" relative="1" as="geometry">
                        <mxPoint x="-60" y="42.5" as="sourcePoint"/>
                        <mxPoint x="-20" y="0.5" as="targetPoint"/>
                        <Array as="points"/>
                    </mxGeometry>
                </mxCell>
                <mxCell id="6GG8XrTIYS3d066kc0xq-8" value="Dunfermline Men's Shed" style="text;html=1;strokeColor=none;fillColor=none;align=center;verticalAlign=middle;whiteSpace=wrap;rounded=0;" parent="1" vertex="1">
                    <mxGeometry x="120" y="72.5" width="160" height="30" as="geometry"/>
                </mxCell>
                <mxCell id="6GG8XrTIYS3d066kc0xq-9" value="" style="endArrow=none;html=1;rounded=0;" parent="1" edge="1">
                    <mxGeometry width="50" height="50" relative="1" as="geometry">
                        <mxPoint x="50" y="120" as="sourcePoint"/>
                        <mxPoint x="680" y="120" as="targetPoint"/>
                    </mxGeometry>
                </mxCell>
                <mxCell id="6GG8XrTIYS3d066kc0xq-10" value="Home" style="text;html=1;strokeColor=none;fillColor=none;align=center;verticalAlign=middle;whiteSpace=wrap;rounded=0;" parent="1" vertex="1">
                    <mxGeometry x="310" y="72.5" width="60" height="30" as="geometry"/>
                </mxCell>
                <mxCell id="6GG8XrTIYS3d066kc0xq-11" value="About Us" style="text;html=1;strokeColor=none;fillColor=none;align=center;verticalAlign=middle;whiteSpace=wrap;rounded=0;" parent="1" vertex="1">
                    <mxGeometry x="383" y="72.5" width="60" height="30" as="geometry"/>
                </mxCell>
                <mxCell id="6GG8XrTIYS3d066kc0xq-12" value="Resource Library" style="text;html=1;strokeColor=none;fillColor=none;align=center;verticalAlign=middle;whiteSpace=wrap;rounded=0;" parent="1" vertex="1">
                    <mxGeometry x="455" y="72.5" width="60" height="30" as="geometry"/>
                </mxCell>
                <mxCell id="6GG8XrTIYS3d066kc0xq-13" value="Booking" style="text;html=1;strokeColor=none;fillColor=none;align=center;verticalAlign=middle;whiteSpace=wrap;rounded=0;" parent="1" vertex="1">
                    <mxGeometry x="528" y="72.5" width="60" height="30" as="geometry"/>
                </mxCell>
                <mxCell id="6GG8XrTIYS3d066kc0xq-14" value="&lt;u&gt;Support&lt;/u&gt;" style="text;html=1;strokeColor=none;fillColor=none;align=center;verticalAlign=middle;whiteSpace=wrap;rounded=0;" parent="1" vertex="1">
                    <mxGeometry x="600" y="72.5" width="60" height="30" as="geometry"/>
                </mxCell>
                <mxCell id="6GG8XrTIYS3d066kc0xq-15" value="" style="rounded=0;whiteSpace=wrap;html=1;fillColor=#004AAD;strokeColor=none;" parent="1" vertex="1">
                    <mxGeometry x="50" y="30" width="20" height="1070" as="geometry"/>
                </mxCell>
                <mxCell id="6GG8XrTIYS3d066kc0xq-38" value="" style="rounded=0;whiteSpace=wrap;html=1;fillColor=#004AAD;strokeColor=none;" parent="1" vertex="1">
                    <mxGeometry x="50" y="940" width="630" height="160" as="geometry"/>
                </mxCell>
                <mxCell id="6GG8XrTIYS3d066kc0xq-39" value="" style="group" parent="1" connectable="0" vertex="1">
                    <mxGeometry x="60" y="950" width="50" height="55" as="geometry"/>
                </mxCell>
                <mxCell id="6GG8XrTIYS3d066kc0xq-40" value="" style="group" parent="6GG8XrTIYS3d066kc0xq-39" connectable="0" vertex="1">
                    <mxGeometry width="50" height="55" as="geometry"/>
                </mxCell>
                <mxCell id="6GG8XrTIYS3d066kc0xq-41" value="" style="rounded=0;whiteSpace=wrap;html=1;" parent="6GG8XrTIYS3d066kc0xq-40" vertex="1">
                    <mxGeometry width="50" height="55" as="geometry"/>
                </mxCell>
                <mxCell id="6GG8XrTIYS3d066kc0xq-42" value="" style="endArrow=none;html=1;rounded=0;entryX=0;entryY=0;entryDx=0;entryDy=0;exitX=1;exitY=1;exitDx=0;exitDy=0;" parent="6GG8XrTIYS3d066kc0xq-40" source="6GG8XrTIYS3d066kc0xq-41" target="6GG8XrTIYS3d066kc0xq-41" edge="1">
                    <mxGeometry width="50" height="50" relative="1" as="geometry">
                        <mxPoint x="350" y="282.5" as="sourcePoint"/>
                        <mxPoint x="400" y="232.5" as="targetPoint"/>
                    </mxGeometry>
                </mxCell>
                <mxCell id="6GG8XrTIYS3d066kc0xq-43" value="" style="endArrow=none;html=1;rounded=0;exitX=0;exitY=1;exitDx=0;exitDy=0;entryX=1;entryY=0;entryDx=0;entryDy=0;" parent="6GG8XrTIYS3d066kc0xq-40" source="6GG8XrTIYS3d066kc0xq-41" target="6GG8XrTIYS3d066kc0xq-41" edge="1">
                    <mxGeometry width="50" height="50" relative="1" as="geometry">
                        <mxPoint x="-60" y="42.5" as="sourcePoint"/>
                        <mxPoint x="-20" y="0.5" as="targetPoint"/>
                        <Array as="points"/>
                    </mxGeometry>
                </mxCell>
                <mxCell id="6GG8XrTIYS3d066kc0xq-44" value="&lt;font style=&quot;font-size: 11px;&quot; color=&quot;#ffffff&quot;&gt;Copyright ©2022 Dunfermline Men's Shed, All Rights Reserved.&lt;/font&gt;" style="text;html=1;strokeColor=none;fillColor=none;align=center;verticalAlign=middle;whiteSpace=wrap;rounded=0;fontSize=17;" parent="1" vertex="1">
                    <mxGeometry x="80" y="1060" width="550" height="32.5" as="geometry"/>
                </mxCell>
                <mxCell id="6GG8XrTIYS3d066kc0xq-45" value="&lt;font color=&quot;#ffffff&quot;&gt;| Privacy Notice | Terms &amp;amp; Conditions |&amp;nbsp;&lt;/font&gt;" style="text;html=1;strokeColor=none;fillColor=none;align=center;verticalAlign=middle;whiteSpace=wrap;rounded=0;" parent="1" vertex="1">
                    <mxGeometry x="150" y="1047.5" width="400" height="30" as="geometry"/>
                </mxCell>
                <mxCell id="6GG8XrTIYS3d066kc0xq-46" value="&lt;p style=&quot;line-height: 30%;&quot;&gt;&lt;/p&gt;&lt;h1 style=&quot;line-height: 40%;&quot;&gt;&lt;span style=&quot;font-size: 12px; font-weight: 400;&quot;&gt;Dunfermline Men's Shed&amp;nbsp;&lt;/span&gt;&lt;/h1&gt;&lt;div style=&quot;line-height: 70%;&quot;&gt;&lt;span style=&quot;font-size: 12px; font-weight: 400;&quot;&gt;The Steadings, Pittencrieff Park&lt;/span&gt;&lt;/div&gt;&lt;div&gt;Dunfermline&lt;/div&gt;&lt;div style=&quot;line-height: 100%;&quot;&gt;&lt;span style=&quot;background-color: initial; font-size: 12px; font-weight: normal;&quot;&gt;KY12 8QH&lt;/span&gt;&lt;/div&gt;&lt;div style=&quot;line-height: 100%;&quot;&gt;&lt;br&gt;&lt;/div&gt;&lt;div style=&quot;line-height: 100%;&quot;&gt;01383 650355&lt;br&gt;&lt;/div&gt;&lt;p&gt;&lt;/p&gt;" style="text;html=1;strokeColor=none;fillColor=none;spacing=5;spacingTop=-20;whiteSpace=wrap;overflow=hidden;rounded=0;fontColor=#FFFFFF;" parent="1" vertex="1">
                    <mxGeometry x="110" y="940" width="190" height="120" as="geometry"/>
                </mxCell>
                <mxCell id="OS3G7YbZdsYK72RAfbbV-1" value="" style="group" parent="1" connectable="0" vertex="1">
                    <mxGeometry x="80" y="130" width="590" height="140" as="geometry"/>
                </mxCell>
                <mxCell id="OS3G7YbZdsYK72RAfbbV-2" value="" style="group" parent="OS3G7YbZdsYK72RAfbbV-1" connectable="0" vertex="1">
                    <mxGeometry width="590" height="140" as="geometry"/>
                </mxCell>
                <mxCell id="OS3G7YbZdsYK72RAfbbV-3" value="" style="rounded=0;whiteSpace=wrap;html=1;" parent="OS3G7YbZdsYK72RAfbbV-2" vertex="1">
                    <mxGeometry width="590" height="140" as="geometry"/>
                </mxCell>
                <mxCell id="OS3G7YbZdsYK72RAfbbV-4" value="" style="endArrow=none;html=1;rounded=0;entryX=0;entryY=0;entryDx=0;entryDy=0;exitX=1;exitY=1;exitDx=0;exitDy=0;" parent="OS3G7YbZdsYK72RAfbbV-2" source="OS3G7YbZdsYK72RAfbbV-3" target="OS3G7YbZdsYK72RAfbbV-3" edge="1">
                    <mxGeometry width="50" height="50" relative="1" as="geometry">
                        <mxPoint x="4130" y="719.0909090909091" as="sourcePoint"/>
                        <mxPoint x="4720" y="591.8181818181818" as="targetPoint"/>
                    </mxGeometry>
                </mxCell>
                <mxCell id="OS3G7YbZdsYK72RAfbbV-5" value="" style="endArrow=none;html=1;rounded=0;exitX=0;exitY=1;exitDx=0;exitDy=0;entryX=1;entryY=0;entryDx=0;entryDy=0;" parent="OS3G7YbZdsYK72RAfbbV-2" source="OS3G7YbZdsYK72RAfbbV-3" target="OS3G7YbZdsYK72RAfbbV-3" edge="1">
                    <mxGeometry width="50" height="50" relative="1" as="geometry">
                        <mxPoint x="-708" y="108.18181818181819" as="sourcePoint"/>
                        <mxPoint x="-236" y="1.2727272727272727" as="targetPoint"/>
                        <Array as="points"/>
                    </mxGeometry>
                </mxCell>
                <mxCell id="OS3G7YbZdsYK72RAfbbV-6" value="&lt;h1&gt;FAQ&lt;/h1&gt;&lt;p&gt;Question 1...:&amp;nbsp; answer.&lt;span style=&quot;background-color: initial;&quot;&gt;..&lt;/span&gt;&lt;/p&gt;Question 2...:&amp;nbsp; answer...&lt;br&gt;&lt;br&gt;Question 3...:&amp;nbsp; answer...&lt;br&gt;&lt;br&gt;Question 4...:&amp;nbsp; answer...&lt;br&gt;&lt;p&gt;&lt;span style=&quot;background-color: initial;&quot;&gt;&amp;nbsp;&lt;/span&gt;&lt;/p&gt;" style="text;html=1;strokeColor=none;fillColor=none;spacing=5;spacingTop=-20;whiteSpace=wrap;overflow=hidden;rounded=0;align=center;" parent="1" vertex="1">
                    <mxGeometry x="80" y="690" width="590" height="180" as="geometry"/>
                </mxCell>
                <mxCell id="OS3G7YbZdsYK72RAfbbV-7" value="" style="rounded=0;whiteSpace=wrap;html=1;" parent="1" vertex="1">
                    <mxGeometry x="80" y="310" width="250" height="350" as="geometry"/>
                </mxCell>
                <mxCell id="82HUiv17i9rUelKoCqLx-1" value="Contact Form" style="text;html=1;strokeColor=none;fillColor=none;align=center;verticalAlign=middle;whiteSpace=wrap;rounded=0;" parent="1" vertex="1">
                    <mxGeometry x="145" y="310" width="110" height="30" as="geometry"/>
                </mxCell>
                <mxCell id="82HUiv17i9rUelKoCqLx-2" value="Name" style="text;html=1;strokeColor=default;fillColor=none;align=left;verticalAlign=middle;whiteSpace=wrap;rounded=0;perimeterSpacing=1;" parent="1" vertex="1">
                    <mxGeometry x="110" y="360" width="190" height="30" as="geometry"/>
                </mxCell>
                <mxCell id="82HUiv17i9rUelKoCqLx-3" value="Email" style="text;html=1;strokeColor=default;fillColor=none;align=left;verticalAlign=middle;whiteSpace=wrap;rounded=0;perimeterSpacing=1;" parent="1" vertex="1">
                    <mxGeometry x="110" y="410" width="190" height="30" as="geometry"/>
                </mxCell>
                <mxCell id="82HUiv17i9rUelKoCqLx-4" value="Telephone" style="text;html=1;strokeColor=default;fillColor=none;align=left;verticalAlign=middle;whiteSpace=wrap;rounded=0;perimeterSpacing=1;" parent="1" vertex="1">
                    <mxGeometry x="110" y="460" width="190" height="30" as="geometry"/>
                </mxCell>
                <mxCell id="82HUiv17i9rUelKoCqLx-5" value="&lt;p style=&quot;line-height: 120%;&quot;&gt;&lt;br&gt;&lt;/p&gt;" style="text;html=1;strokeColor=default;fillColor=none;align=left;verticalAlign=middle;whiteSpace=wrap;rounded=0;perimeterSpacing=1;" parent="1" vertex="1">
                    <mxGeometry x="110" y="510" width="190" height="120" as="geometry"/>
                </mxCell>
                <mxCell id="82HUiv17i9rUelKoCqLx-6" value="Message" style="text;html=1;strokeColor=none;fillColor=none;align=center;verticalAlign=middle;whiteSpace=wrap;rounded=0;fontSize=12;" parent="1" vertex="1">
                    <mxGeometry x="110" y="510" width="60" height="30" as="geometry"/>
                </mxCell>
                <mxCell id="-614_x3wzlv9FLQMvHze-1" value="&lt;h1&gt;&lt;span style=&quot;background-color: initial; font-size: 17px;&quot;&gt;Shed News&lt;/span&gt;&lt;/h1&gt;&lt;p&gt;Lorem ipsum dolor sit amet, consectetur adipisicing elit, sed do eiusmod tempor incididunt ut labore et dolore magna aliqua.&lt;br&gt;&lt;/p&gt;&lt;p&gt;Link to media: facebook&lt;/p&gt;" style="text;html=1;strokeColor=none;fillColor=none;spacing=5;spacingTop=-20;whiteSpace=wrap;overflow=hidden;rounded=0;" parent="1" vertex="1">
                    <mxGeometry x="360" y="310" width="310" height="180" as="geometry"/>
                </mxCell>
                <mxCell id="-614_x3wzlv9FLQMvHze-2" value="" style="group;strokeColor=default;fontSize=12;" parent="1" connectable="0" vertex="1">
                    <mxGeometry x="370" y="510" width="300" height="150" as="geometry"/>
                </mxCell>
                <mxCell id="-614_x3wzlv9FLQMvHze-3" value="" style="group;strokeColor=default;fontSize=12;" parent="-614_x3wzlv9FLQMvHze-2" connectable="0" vertex="1">
                    <mxGeometry x="-10" width="310" height="150" as="geometry"/>
                </mxCell>
                <mxCell id="-614_x3wzlv9FLQMvHze-4" value="" style="rounded=0;whiteSpace=wrap;html=1;strokeColor=default;fontSize=12;" parent="-614_x3wzlv9FLQMvHze-3" vertex="1">
                    <mxGeometry width="310.00000000000006" height="150" as="geometry"/>
                </mxCell>
                <mxCell id="-614_x3wzlv9FLQMvHze-5" value="" style="endArrow=none;html=1;rounded=0;entryX=0;entryY=0;entryDx=0;entryDy=0;exitX=1;exitY=1;exitDx=0;exitDy=0;fontSize=12;" parent="-614_x3wzlv9FLQMvHze-3" source="-614_x3wzlv9FLQMvHze-4" target="-614_x3wzlv9FLQMvHze-4" edge="1">
                    <mxGeometry width="50" height="50" relative="1" as="geometry">
                        <mxPoint x="2170" y="770.4545454545455" as="sourcePoint"/>
                        <mxPoint x="2480.0000000000005" y="634.0909090909091" as="targetPoint"/>
                    </mxGeometry>
                </mxCell>
                <mxCell id="-614_x3wzlv9FLQMvHze-6" value="" style="endArrow=none;html=1;rounded=0;exitX=0;exitY=1;exitDx=0;exitDy=0;entryX=1;entryY=0;entryDx=0;entryDy=0;fontSize=12;" parent="-614_x3wzlv9FLQMvHze-3" source="-614_x3wzlv9FLQMvHze-4" target="-614_x3wzlv9FLQMvHze-4" edge="1">
                    <mxGeometry width="50" height="50" relative="1" as="geometry">
                        <mxPoint x="-372.00000000000006" y="115.90909090909092" as="sourcePoint"/>
                        <mxPoint x="-124.00000000000001" y="1.3636363636363638" as="targetPoint"/>
                        <Array as="points"/>
                    </mxGeometry>
                </mxCell>
            </root>
        </mxGraphModel>
    </diagram>
</mxfile>